<svg width="590" height="244" viewBox="0 0 590 244" fill="none" xmlns="http://www.w3.org/2000/svg">
<line x1="1.5" y1="14.5" x2="588.5" y2="14.5" stroke="#F2F4F7" stroke-linecap="round"/>
<line x1="1.5" y1="57" x2="588.5" y2="57" stroke="#F2F4F7" stroke-linecap="round"/>
<line x1="1.5" y1="97" x2="588.5" y2="97" stroke="#F2F4F7" stroke-linecap="round"/>
<line x1="1.5" y1="137" x2="588.5" y2="137" stroke="#F2F4F7" stroke-linecap="round"/>
<line x1="1.5" y1="177" x2="588.5" y2="177" stroke="#F2F4F7" stroke-linecap="round"/>
<line x1="1.5" y1="217" x2="588.5" y2="217" stroke="#F2F4F7" stroke-linecap="round"/>
<path d="M29.7493 230.273H30.8061V236.511C30.8061 237.068 30.7038 237.541 30.4993 237.93C30.2947 238.32 30.0064 238.615 29.6342 238.817C29.2621 239.018 28.8232 239.119 28.3175 239.119C27.8402 239.119 27.4155 239.033 27.0433 238.859C26.6712 238.683 26.3786 238.433 26.1655 238.109C25.9524 237.786 25.8459 237.401 25.8459 236.955H26.8857C26.8857 237.202 26.9467 237.418 27.0689 237.602C27.1939 237.784 27.3643 237.926 27.5803 238.028C27.7962 238.131 28.0419 238.182 28.3175 238.182C28.6214 238.182 28.88 238.118 29.093 237.99C29.3061 237.862 29.468 237.675 29.5788 237.428C29.6925 237.178 29.7493 236.872 29.7493 236.511V230.273ZM34.7138 239.153C34.299 239.153 33.9226 239.075 33.5845 238.919C33.2464 238.76 32.978 238.531 32.7791 238.233C32.5803 237.932 32.4808 237.568 32.4808 237.142C32.4808 236.767 32.5547 236.463 32.7024 236.23C32.8501 235.994 33.0476 235.81 33.2947 235.676C33.5419 235.543 33.8146 235.443 34.1129 235.378C34.4141 235.31 34.7166 235.256 35.0206 235.216C35.4183 235.165 35.7408 235.126 35.9879 235.101C36.2379 235.072 36.4197 235.026 36.5334 234.96C36.6499 234.895 36.7081 234.781 36.7081 234.619V234.585C36.7081 234.165 36.593 233.838 36.3629 233.605C36.1357 233.372 35.7905 233.256 35.3274 233.256C34.8473 233.256 34.4709 233.361 34.1982 233.571C33.9254 233.781 33.7337 234.006 33.6229 234.244L32.6683 233.903C32.8388 233.506 33.0661 233.196 33.3501 232.974C33.6371 232.75 33.9496 232.594 34.2876 232.506C34.6286 232.415 34.9638 232.369 35.2933 232.369C35.5036 232.369 35.745 232.395 36.0178 232.446C36.2933 232.494 36.5589 232.595 36.8146 232.749C37.0732 232.902 37.2876 233.134 37.4581 233.443C37.6286 233.753 37.7138 234.168 37.7138 234.688V239H36.7081V238.114H36.657C36.5888 238.256 36.4751 238.408 36.3161 238.57C36.157 238.732 35.9453 238.869 35.6811 238.983C35.4169 239.097 35.0945 239.153 34.7138 239.153ZM34.8672 238.25C35.2649 238.25 35.6001 238.172 35.8729 238.016C36.1484 237.859 36.3558 237.658 36.495 237.411C36.6371 237.163 36.7081 236.903 36.7081 236.631V235.71C36.6655 235.761 36.5717 235.808 36.4268 235.851C36.2848 235.891 36.12 235.926 35.9325 235.957C35.7479 235.986 35.5675 236.011 35.3913 236.034C35.218 236.054 35.0774 236.071 34.9695 236.085C34.7081 236.119 34.4638 236.175 34.2365 236.251C34.0121 236.325 33.8303 236.437 33.6911 236.588C33.5547 236.736 33.4865 236.937 33.4865 237.193C33.4865 237.543 33.6158 237.807 33.8743 237.986C34.1357 238.162 34.4666 238.25 34.8672 238.25ZM40.555 235.062V239H39.5494V232.455H40.521V233.477H40.6062C40.7596 233.145 40.9925 232.878 41.305 232.676C41.6175 232.472 42.021 232.369 42.5153 232.369C42.9585 232.369 43.3462 232.46 43.6786 232.642C44.011 232.821 44.2695 233.094 44.4542 233.46C44.6388 233.824 44.7312 234.284 44.7312 234.841V239H43.7255V234.909C43.7255 234.395 43.592 233.994 43.3249 233.707C43.0579 233.418 42.6914 233.273 42.2255 233.273C41.9045 233.273 41.6175 233.342 41.3647 233.482C41.1147 233.621 40.9173 233.824 40.7724 234.091C40.6275 234.358 40.555 234.682 40.555 235.062Z" fill="#475467"/>
<path d="M72.6932 239V230.273H77.9261V231.21H73.75V234.159H77.5341V235.097H73.75V239H72.6932ZM81.8636 239.136C81.233 239.136 80.6889 238.997 80.2315 238.719C79.777 238.438 79.4261 238.045 79.179 237.543C78.9347 237.037 78.8125 236.449 78.8125 235.778C78.8125 235.108 78.9347 234.517 79.179 234.006C79.4261 233.491 79.7699 233.091 80.2102 232.804C80.6534 232.514 81.1705 232.369 81.7614 232.369C82.1023 232.369 82.4389 232.426 82.7713 232.54C83.1037 232.653 83.4063 232.838 83.679 233.094C83.9517 233.347 84.169 233.682 84.331 234.099C84.4929 234.517 84.5739 235.031 84.5739 235.642V236.068H79.5284V235.199H83.5511C83.5511 234.83 83.4773 234.5 83.3295 234.21C83.1847 233.92 82.9773 233.692 82.7074 233.524C82.4403 233.357 82.125 233.273 81.7614 233.273C81.3608 233.273 81.0142 233.372 80.7216 233.571C80.4318 233.767 80.2088 234.023 80.0526 234.338C79.8963 234.653 79.8182 234.991 79.8182 235.352V235.932C79.8182 236.426 79.9034 236.845 80.0739 237.189C80.2472 237.53 80.4872 237.79 80.794 237.969C81.1009 238.145 81.4574 238.233 81.8636 238.233C82.1278 238.233 82.3665 238.196 82.5795 238.122C82.7955 238.045 82.9815 237.932 83.1378 237.781C83.294 237.628 83.4148 237.437 83.5 237.21L84.4716 237.483C84.3693 237.812 84.1974 238.102 83.956 238.352C83.7145 238.599 83.4162 238.793 83.0611 238.932C82.706 239.068 82.3068 239.136 81.8636 239.136ZM86.2401 239V230.273H87.2457V233.494H87.331C87.4048 233.381 87.5071 233.236 87.6378 233.06C87.7713 232.881 87.9617 232.722 88.2088 232.582C88.4588 232.44 88.7969 232.369 89.223 232.369C89.7742 232.369 90.2599 232.507 90.6804 232.783C91.1009 233.058 91.429 233.449 91.6648 233.955C91.9006 234.46 92.0185 235.057 92.0185 235.744C92.0185 236.438 91.9006 237.038 91.6648 237.547C91.429 238.053 91.1023 238.445 90.6847 238.723C90.267 238.999 89.7855 239.136 89.2401 239.136C88.8196 239.136 88.483 239.067 88.2301 238.928C87.9773 238.786 87.7827 238.625 87.6463 238.446C87.5099 238.264 87.4048 238.114 87.331 237.994H87.2117V239H86.2401ZM87.2287 235.727C87.2287 236.222 87.3011 236.658 87.446 237.036C87.5909 237.411 87.8026 237.705 88.081 237.918C88.3594 238.128 88.7003 238.233 89.1037 238.233C89.5242 238.233 89.875 238.122 90.1563 237.901C90.4403 237.676 90.6534 237.375 90.7955 236.997C90.9403 236.616 91.0128 236.193 91.0128 235.727C91.0128 235.267 90.9418 234.852 90.7997 234.483C90.6605 234.111 90.4489 233.817 90.1648 233.601C89.8835 233.382 89.5298 233.273 89.1037 233.273C88.6946 233.273 88.3509 233.376 88.0724 233.584C87.794 233.788 87.5838 234.075 87.4418 234.445C87.2997 234.811 87.2287 235.239 87.2287 235.727Z" fill="#475467"/>
<path d="M119.378 230.273H120.64L123.606 237.517H123.708L126.674 230.273H127.935V239H126.947V232.369H126.861L124.134 239H123.18L120.452 232.369H120.367V239H119.378V230.273ZM131.844 239.153C131.429 239.153 131.053 239.075 130.715 238.919C130.377 238.76 130.108 238.531 129.909 238.233C129.71 237.932 129.611 237.568 129.611 237.142C129.611 236.767 129.685 236.463 129.833 236.23C129.98 235.994 130.178 235.81 130.425 235.676C130.672 235.543 130.945 235.443 131.243 235.378C131.544 235.31 131.847 235.256 132.151 235.216C132.548 235.165 132.871 235.126 133.118 235.101C133.368 235.072 133.55 235.026 133.664 234.96C133.78 234.895 133.838 234.781 133.838 234.619V234.585C133.838 234.165 133.723 233.838 133.493 233.605C133.266 233.372 132.921 233.256 132.458 233.256C131.977 233.256 131.601 233.361 131.328 233.571C131.056 233.781 130.864 234.006 130.753 234.244L129.798 233.903C129.969 233.506 130.196 233.196 130.48 232.974C130.767 232.75 131.08 232.594 131.418 232.506C131.759 232.415 132.094 232.369 132.423 232.369C132.634 232.369 132.875 232.395 133.148 232.446C133.423 232.494 133.689 232.595 133.945 232.749C134.203 232.902 134.418 233.134 134.588 233.443C134.759 233.753 134.844 234.168 134.844 234.688V239H133.838V238.114H133.787C133.719 238.256 133.605 238.408 133.446 238.57C133.287 238.732 133.075 238.869 132.811 238.983C132.547 239.097 132.225 239.153 131.844 239.153ZM131.997 238.25C132.395 238.25 132.73 238.172 133.003 238.016C133.279 237.859 133.486 237.658 133.625 237.411C133.767 237.163 133.838 236.903 133.838 236.631V235.71C133.796 235.761 133.702 235.808 133.557 235.851C133.415 235.891 133.25 235.926 133.063 235.957C132.878 235.986 132.698 236.011 132.521 236.034C132.348 236.054 132.208 236.071 132.1 236.085C131.838 236.119 131.594 236.175 131.367 236.251C131.142 236.325 130.96 236.437 130.821 236.588C130.685 236.736 130.617 236.937 130.617 237.193C130.617 237.543 130.746 237.807 131.004 237.986C131.266 238.162 131.597 238.25 131.997 238.25ZM136.68 239V232.455H137.651V233.443H137.719C137.839 233.119 138.055 232.857 138.367 232.655C138.68 232.453 139.032 232.352 139.424 232.352C139.498 232.352 139.59 232.354 139.701 232.357C139.812 232.359 139.895 232.364 139.952 232.369V233.392C139.918 233.384 139.84 233.371 139.718 233.354C139.599 233.334 139.472 233.324 139.339 233.324C139.02 233.324 138.736 233.391 138.486 233.524C138.239 233.655 138.043 233.837 137.898 234.07C137.756 234.3 137.685 234.562 137.685 234.858V239H136.68Z" fill="#475467"/>
<path d="M167.381 239H166.273L169.477 230.273H170.568L173.773 239H172.665L170.057 231.653H169.988L167.381 239ZM167.79 235.591H172.256V236.528H167.79V235.591ZM174.996 241.455V232.455H175.967V233.494H176.086C176.16 233.381 176.263 233.236 176.393 233.06C176.527 232.881 176.717 232.722 176.964 232.582C177.214 232.44 177.552 232.369 177.979 232.369C178.53 232.369 179.015 232.507 179.436 232.783C179.856 233.058 180.185 233.449 180.42 233.955C180.656 234.46 180.774 235.057 180.774 235.744C180.774 236.438 180.656 237.038 180.42 237.547C180.185 238.053 179.858 238.445 179.44 238.723C179.023 238.999 178.541 239.136 177.996 239.136C177.575 239.136 177.238 239.067 176.986 238.928C176.733 238.786 176.538 238.625 176.402 238.446C176.265 238.264 176.16 238.114 176.086 237.994H176.001V241.455H174.996ZM175.984 235.727C175.984 236.222 176.057 236.658 176.202 237.036C176.346 237.411 176.558 237.705 176.836 237.918C177.115 238.128 177.456 238.233 177.859 238.233C178.28 238.233 178.631 238.122 178.912 237.901C179.196 237.676 179.409 237.375 179.551 236.997C179.696 236.616 179.768 236.193 179.768 235.727C179.768 235.267 179.697 234.852 179.555 234.483C179.416 234.111 179.204 233.817 178.92 233.601C178.639 233.382 178.285 233.273 177.859 233.273C177.45 233.273 177.106 233.376 176.828 233.584C176.55 233.788 176.339 234.075 176.197 234.445C176.055 234.811 175.984 235.239 175.984 235.727ZM182.308 239V232.455H183.28V233.443H183.348C183.467 233.119 183.683 232.857 183.996 232.655C184.308 232.453 184.66 232.352 185.052 232.352C185.126 232.352 185.219 232.354 185.329 232.357C185.44 232.359 185.524 232.364 185.581 232.369V233.392C185.547 233.384 185.469 233.371 185.346 233.354C185.227 233.334 185.101 233.324 184.967 233.324C184.649 233.324 184.365 233.391 184.115 233.524C183.868 233.655 183.672 233.837 183.527 234.07C183.385 234.3 183.314 234.562 183.314 234.858V239H182.308Z" fill="#475467"/>
<path d="M212.661 230.273H213.922L216.888 237.517H216.99L219.956 230.273H221.218V239H220.229V232.369H220.144L217.417 239H216.462L213.735 232.369H213.65V239H212.661V230.273ZM225.126 239.153C224.712 239.153 224.335 239.075 223.997 238.919C223.659 238.76 223.391 238.531 223.192 238.233C222.993 237.932 222.893 237.568 222.893 237.142C222.893 236.767 222.967 236.463 223.115 236.23C223.263 235.994 223.46 235.81 223.707 235.676C223.955 235.543 224.227 235.443 224.526 235.378C224.827 235.31 225.129 235.256 225.433 235.216C225.831 235.165 226.153 235.126 226.401 235.101C226.651 235.072 226.832 235.026 226.946 234.96C227.063 234.895 227.121 234.781 227.121 234.619V234.585C227.121 234.165 227.006 233.838 226.776 233.605C226.548 233.372 226.203 233.256 225.74 233.256C225.26 233.256 224.884 233.361 224.611 233.571C224.338 233.781 224.146 234.006 224.036 234.244L223.081 233.903C223.251 233.506 223.479 233.196 223.763 232.974C224.05 232.75 224.362 232.594 224.7 232.506C225.041 232.415 225.376 232.369 225.706 232.369C225.916 232.369 226.158 232.395 226.43 232.446C226.706 232.494 226.972 232.595 227.227 232.749C227.486 232.902 227.7 233.134 227.871 233.443C228.041 233.753 228.126 234.168 228.126 234.688V239H227.121V238.114H227.07C227.001 238.256 226.888 238.408 226.729 238.57C226.57 238.732 226.358 238.869 226.094 238.983C225.83 239.097 225.507 239.153 225.126 239.153ZM225.28 238.25C225.678 238.25 226.013 238.172 226.286 238.016C226.561 237.859 226.768 237.658 226.908 237.411C227.05 237.163 227.121 236.903 227.121 236.631V235.71C227.078 235.761 226.984 235.808 226.84 235.851C226.697 235.891 226.533 235.926 226.345 235.957C226.161 235.986 225.98 236.011 225.804 236.034C225.631 236.054 225.49 236.071 225.382 236.085C225.121 236.119 224.876 236.175 224.649 236.251C224.425 236.325 224.243 236.437 224.104 236.588C223.967 236.736 223.899 236.937 223.899 237.193C223.899 237.543 224.028 237.807 224.287 237.986C224.548 238.162 224.879 238.25 225.28 238.25ZM230.375 241.455C230.205 241.455 230.053 241.44 229.919 241.412C229.786 241.386 229.694 241.361 229.642 241.335L229.898 240.449C230.142 240.511 230.358 240.534 230.546 240.517C230.733 240.5 230.9 240.416 231.044 240.266C231.192 240.118 231.327 239.878 231.449 239.545L231.637 239.034L229.216 232.455H230.307L232.114 237.67H232.182L233.989 232.455H235.08L232.302 239.955C232.177 240.293 232.022 240.572 231.837 240.794C231.652 241.018 231.438 241.185 231.194 241.293C230.952 241.401 230.679 241.455 230.375 241.455Z" fill="#475467"/>
<path d="M265.826 230.273H266.882V236.511C266.882 237.068 266.78 237.541 266.576 237.93C266.371 238.32 266.083 238.615 265.711 238.817C265.338 239.018 264.9 239.119 264.394 239.119C263.917 239.119 263.492 239.033 263.12 238.859C262.748 238.683 262.455 238.433 262.242 238.109C262.029 237.786 261.922 237.401 261.922 236.955H262.962C262.962 237.202 263.023 237.418 263.145 237.602C263.27 237.784 263.441 237.926 263.657 238.028C263.873 238.131 264.118 238.182 264.394 238.182C264.698 238.182 264.956 238.118 265.169 237.99C265.382 237.862 265.544 237.675 265.655 237.428C265.769 237.178 265.826 236.872 265.826 236.511V230.273ZM272.989 236.324V232.455H273.995V239H272.989V237.892H272.921C272.767 238.224 272.529 238.507 272.205 238.74C271.881 238.97 271.472 239.085 270.978 239.085C270.569 239.085 270.205 238.996 269.887 238.817C269.569 238.635 269.319 238.362 269.137 237.999C268.955 237.632 268.864 237.17 268.864 236.614V232.455H269.87V236.545C269.87 237.023 270.003 237.403 270.27 237.688C270.54 237.972 270.884 238.114 271.301 238.114C271.551 238.114 271.806 238.05 272.064 237.922C272.326 237.794 272.544 237.598 272.721 237.334C272.9 237.07 272.989 236.733 272.989 236.324ZM276.842 235.062V239H275.837V232.455H276.808V233.477H276.893C277.047 233.145 277.28 232.878 277.592 232.676C277.905 232.472 278.308 232.369 278.803 232.369C279.246 232.369 279.634 232.46 279.966 232.642C280.298 232.821 280.557 233.094 280.741 233.46C280.926 233.824 281.018 234.284 281.018 234.841V239H280.013V234.909C280.013 234.395 279.879 233.994 279.612 233.707C279.345 233.418 278.979 233.273 278.513 233.273C278.192 233.273 277.905 233.342 277.652 233.482C277.402 233.621 277.205 233.824 277.06 234.091C276.915 234.358 276.842 234.682 276.842 235.062Z" fill="#475467"/>
<path d="M312.548 230.273H313.605V236.511C313.605 237.068 313.502 237.541 313.298 237.93C313.093 238.32 312.805 238.615 312.433 238.817C312.061 239.018 311.622 239.119 311.116 239.119C310.639 239.119 310.214 239.033 309.842 238.859C309.47 238.683 309.177 238.433 308.964 238.109C308.751 237.786 308.645 237.401 308.645 236.955H309.684C309.684 237.202 309.745 237.418 309.868 237.602C309.993 237.784 310.163 237.926 310.379 238.028C310.595 238.131 310.841 238.182 311.116 238.182C311.42 238.182 311.679 238.118 311.892 237.99C312.105 237.862 312.267 237.675 312.377 237.428C312.491 237.178 312.548 236.872 312.548 236.511V230.273ZM319.711 236.324V232.455H320.717V239H319.711V237.892H319.643C319.49 238.224 319.251 238.507 318.927 238.74C318.603 238.97 318.194 239.085 317.7 239.085C317.291 239.085 316.927 238.996 316.609 238.817C316.291 238.635 316.041 238.362 315.859 237.999C315.677 237.632 315.586 237.17 315.586 236.614V232.455H316.592V236.545C316.592 237.023 316.725 237.403 316.993 237.688C317.262 237.972 317.606 238.114 318.024 238.114C318.274 238.114 318.528 238.05 318.787 237.922C319.048 237.794 319.267 237.598 319.443 237.334C319.622 237.07 319.711 236.733 319.711 236.324ZM323.565 230.273V239H322.559V230.273H323.565Z" fill="#475467"/>
<path d="M352.172 239H351.064L354.269 230.273H355.36L358.564 239H357.456L354.848 231.653H354.78L352.172 239ZM352.581 235.591H357.047V236.528H352.581V235.591ZM363.912 236.324V232.455H364.918V239H363.912V237.892H363.844C363.691 238.224 363.452 238.507 363.128 238.74C362.804 238.97 362.395 239.085 361.901 239.085C361.492 239.085 361.128 238.996 360.81 238.817C360.492 238.635 360.242 238.362 360.06 237.999C359.878 237.632 359.787 237.17 359.787 236.614V232.455H360.793V236.545C360.793 237.023 360.926 237.403 361.193 237.688C361.463 237.972 361.807 238.114 362.225 238.114C362.475 238.114 362.729 238.05 362.987 237.922C363.249 237.794 363.467 237.598 363.644 237.334C363.823 237.07 363.912 236.733 363.912 236.324ZM369.402 241.591C368.916 241.591 368.498 241.528 368.149 241.403C367.8 241.281 367.508 241.119 367.275 240.918C367.045 240.719 366.862 240.506 366.726 240.278L367.527 239.716C367.618 239.835 367.733 239.972 367.872 240.125C368.011 240.281 368.202 240.416 368.443 240.53C368.687 240.646 369.007 240.705 369.402 240.705C369.93 240.705 370.366 240.577 370.71 240.321C371.054 240.065 371.226 239.665 371.226 239.119V237.79H371.14C371.067 237.909 370.961 238.057 370.825 238.233C370.692 238.406 370.498 238.561 370.246 238.697C369.996 238.831 369.657 238.898 369.231 238.898C368.703 238.898 368.228 238.773 367.808 238.523C367.39 238.273 367.059 237.909 366.815 237.432C366.574 236.955 366.453 236.375 366.453 235.693C366.453 235.023 366.571 234.439 366.807 233.942C367.042 233.442 367.371 233.055 367.791 232.783C368.211 232.507 368.697 232.369 369.248 232.369C369.675 232.369 370.013 232.44 370.263 232.582C370.515 232.722 370.709 232.881 370.842 233.06C370.978 233.236 371.084 233.381 371.157 233.494H371.26V232.455H372.231V239.188C372.231 239.75 372.103 240.207 371.848 240.56C371.595 240.915 371.254 241.175 370.825 241.339C370.399 241.507 369.925 241.591 369.402 241.591ZM369.368 237.994C369.771 237.994 370.112 237.902 370.39 237.717C370.669 237.533 370.88 237.267 371.025 236.92C371.17 236.574 371.243 236.159 371.243 235.676C371.243 235.205 371.172 234.788 371.03 234.428C370.888 234.067 370.677 233.784 370.399 233.58C370.121 233.375 369.777 233.273 369.368 233.273C368.942 233.273 368.586 233.381 368.302 233.597C368.021 233.812 367.809 234.102 367.667 234.466C367.528 234.83 367.459 235.233 367.459 235.676C367.459 236.131 367.53 236.533 367.672 236.882C367.817 237.229 368.03 237.501 368.311 237.7C368.595 237.896 368.947 237.994 369.368 237.994Z" fill="#475467"/>
<path d="M404.946 232.455C404.895 232.023 404.687 231.688 404.324 231.449C403.96 231.21 403.514 231.091 402.986 231.091C402.599 231.091 402.261 231.153 401.971 231.278C401.684 231.403 401.46 231.575 401.298 231.794C401.139 232.013 401.059 232.261 401.059 232.54C401.059 232.773 401.115 232.973 401.226 233.141C401.339 233.305 401.484 233.443 401.66 233.554C401.836 233.662 402.021 233.751 402.214 233.822C402.407 233.891 402.585 233.946 402.747 233.989L403.633 234.227C403.861 234.287 404.113 234.369 404.392 234.474C404.673 234.58 404.942 234.723 405.197 234.905C405.456 235.084 405.669 235.314 405.836 235.595C406.004 235.876 406.088 236.222 406.088 236.631C406.088 237.102 405.964 237.528 405.717 237.909C405.473 238.29 405.115 238.592 404.643 238.817C404.175 239.041 403.605 239.153 402.934 239.153C402.309 239.153 401.768 239.053 401.311 238.851C400.856 238.649 400.498 238.368 400.237 238.007C399.978 237.646 399.832 237.227 399.798 236.75H400.889C400.917 237.08 401.028 237.352 401.221 237.568C401.417 237.781 401.665 237.94 401.963 238.045C402.264 238.148 402.588 238.199 402.934 238.199C403.338 238.199 403.7 238.134 404.021 238.003C404.342 237.869 404.596 237.685 404.784 237.449C404.971 237.21 405.065 236.932 405.065 236.614C405.065 236.324 404.984 236.088 404.822 235.906C404.66 235.724 404.447 235.577 404.183 235.463C403.919 235.349 403.633 235.25 403.326 235.165L402.253 234.858C401.571 234.662 401.031 234.382 400.633 234.018C400.236 233.655 400.037 233.179 400.037 232.591C400.037 232.102 400.169 231.676 400.433 231.312C400.7 230.946 401.058 230.662 401.507 230.46C401.959 230.256 402.463 230.153 403.02 230.153C403.582 230.153 404.082 230.254 404.52 230.456C404.957 230.655 405.304 230.928 405.559 231.274C405.818 231.621 405.954 232.014 405.969 232.455H404.946ZM410.433 239.136C409.803 239.136 409.259 238.997 408.801 238.719C408.347 238.438 407.996 238.045 407.749 237.543C407.504 237.037 407.382 236.449 407.382 235.778C407.382 235.108 407.504 234.517 407.749 234.006C407.996 233.491 408.34 233.091 408.78 232.804C409.223 232.514 409.74 232.369 410.331 232.369C410.672 232.369 411.009 232.426 411.341 232.54C411.673 232.653 411.976 232.838 412.249 233.094C412.521 233.347 412.739 233.682 412.901 234.099C413.063 234.517 413.144 235.031 413.144 235.642V236.068H408.098V235.199H412.121C412.121 234.83 412.047 234.5 411.899 234.21C411.754 233.92 411.547 233.692 411.277 233.524C411.01 233.357 410.695 233.273 410.331 233.273C409.931 233.273 409.584 233.372 409.291 233.571C409.002 233.767 408.779 234.023 408.622 234.338C408.466 234.653 408.388 234.991 408.388 235.352V235.932C408.388 236.426 408.473 236.845 408.644 237.189C408.817 237.53 409.057 237.79 409.364 237.969C409.671 238.145 410.027 238.233 410.433 238.233C410.698 238.233 410.936 238.196 411.149 238.122C411.365 238.045 411.551 237.932 411.708 237.781C411.864 237.628 411.985 237.437 412.07 237.21L413.041 237.483C412.939 237.812 412.767 238.102 412.526 238.352C412.284 238.599 411.986 238.793 411.631 238.932C411.276 239.068 410.877 239.136 410.433 239.136ZM414.673 241.455V232.455H415.645V233.494H415.764C415.838 233.381 415.94 233.236 416.071 233.06C416.205 232.881 416.395 232.722 416.642 232.582C416.892 232.44 417.23 232.369 417.656 232.369C418.208 232.369 418.693 232.507 419.114 232.783C419.534 233.058 419.862 233.449 420.098 233.955C420.334 234.46 420.452 235.057 420.452 235.744C420.452 236.438 420.334 237.038 420.098 237.547C419.862 238.053 419.536 238.445 419.118 238.723C418.7 238.999 418.219 239.136 417.673 239.136C417.253 239.136 416.916 239.067 416.664 238.928C416.411 238.786 416.216 238.625 416.08 238.446C415.943 238.264 415.838 238.114 415.764 237.994H415.679V241.455H414.673ZM415.662 235.727C415.662 236.222 415.735 236.658 415.879 237.036C416.024 237.411 416.236 237.705 416.514 237.918C416.793 238.128 417.134 238.233 417.537 238.233C417.958 238.233 418.308 238.122 418.59 237.901C418.874 237.676 419.087 237.375 419.229 236.997C419.374 236.616 419.446 236.193 419.446 235.727C419.446 235.267 419.375 234.852 419.233 234.483C419.094 234.111 418.882 233.817 418.598 233.601C418.317 233.382 417.963 233.273 417.537 233.273C417.128 233.273 416.784 233.376 416.506 233.584C416.227 233.788 416.017 234.075 415.875 234.445C415.733 234.811 415.662 235.239 415.662 235.727Z" fill="#475467"/>
<path d="M455.546 234.636C455.546 235.557 455.38 236.352 455.048 237.023C454.715 237.693 454.259 238.21 453.68 238.574C453.1 238.938 452.438 239.119 451.694 239.119C450.95 239.119 450.288 238.938 449.708 238.574C449.129 238.21 448.673 237.693 448.34 237.023C448.008 236.352 447.842 235.557 447.842 234.636C447.842 233.716 448.008 232.92 448.34 232.25C448.673 231.58 449.129 231.062 449.708 230.699C450.288 230.335 450.95 230.153 451.694 230.153C452.438 230.153 453.1 230.335 453.68 230.699C454.259 231.062 454.715 231.58 455.048 232.25C455.38 232.92 455.546 233.716 455.546 234.636ZM454.523 234.636C454.523 233.881 454.397 233.243 454.144 232.723C453.894 232.203 453.555 231.81 453.126 231.543C452.7 231.276 452.222 231.142 451.694 231.142C451.165 231.142 450.687 231.276 450.258 231.543C449.832 231.81 449.492 232.203 449.239 232.723C448.989 233.243 448.864 233.881 448.864 234.636C448.864 235.392 448.989 236.03 449.239 236.55C449.492 237.07 449.832 237.463 450.258 237.73C450.687 237.997 451.165 238.131 451.694 238.131C452.222 238.131 452.7 237.997 453.126 237.73C453.555 237.463 453.894 237.07 454.144 236.55C454.397 236.03 454.523 235.392 454.523 234.636ZM459.846 239.136C459.232 239.136 458.704 238.991 458.261 238.702C457.817 238.412 457.477 238.013 457.238 237.504C456.999 236.996 456.88 236.415 456.88 235.761C456.88 235.097 457.002 234.51 457.246 234.001C457.494 233.49 457.837 233.091 458.278 232.804C458.721 232.514 459.238 232.369 459.829 232.369C460.289 232.369 460.704 232.455 461.073 232.625C461.442 232.795 461.745 233.034 461.981 233.341C462.217 233.648 462.363 234.006 462.42 234.415H461.414C461.337 234.116 461.167 233.852 460.903 233.622C460.641 233.389 460.289 233.273 459.846 233.273C459.454 233.273 459.11 233.375 458.815 233.58C458.522 233.781 458.293 234.067 458.129 234.436C457.967 234.803 457.886 235.233 457.886 235.727C457.886 236.233 457.965 236.673 458.124 237.048C458.286 237.423 458.513 237.714 458.806 237.922C459.102 238.129 459.448 238.233 459.846 238.233C460.107 238.233 460.344 238.188 460.557 238.097C460.771 238.006 460.951 237.875 461.099 237.705C461.246 237.534 461.352 237.33 461.414 237.091H462.42C462.363 237.477 462.222 237.825 461.998 238.135C461.776 238.442 461.482 238.686 461.116 238.868C460.752 239.047 460.329 239.136 459.846 239.136ZM466.736 232.455V233.307H463.344V232.455H466.736ZM464.333 230.886H465.339V237.125C465.339 237.409 465.38 237.622 465.462 237.764C465.548 237.903 465.656 237.997 465.786 238.045C465.92 238.091 466.06 238.114 466.208 238.114C466.319 238.114 466.41 238.108 466.481 238.097C466.552 238.082 466.609 238.071 466.651 238.062L466.856 238.966C466.788 238.991 466.692 239.017 466.57 239.043C466.448 239.071 466.293 239.085 466.106 239.085C465.822 239.085 465.543 239.024 465.271 238.902C465.001 238.78 464.776 238.594 464.597 238.344C464.421 238.094 464.333 237.778 464.333 237.398V230.886Z" fill="#475467"/>
<path d="M501.521 230.273V239H500.498L495.742 232.148H495.657V239H494.6V230.273H495.623L500.396 237.142H500.481V230.273H501.521ZM506.158 239.136C505.567 239.136 505.049 238.996 504.603 238.714C504.159 238.433 503.813 238.04 503.563 237.534C503.316 237.028 503.192 236.437 503.192 235.761C503.192 235.08 503.316 234.484 503.563 233.976C503.813 233.467 504.159 233.072 504.603 232.791C505.049 232.51 505.567 232.369 506.158 232.369C506.749 232.369 507.266 232.51 507.709 232.791C508.155 233.072 508.502 233.467 508.749 233.976C508.999 234.484 509.124 235.08 509.124 235.761C509.124 236.437 508.999 237.028 508.749 237.534C508.502 238.04 508.155 238.433 507.709 238.714C507.266 238.996 506.749 239.136 506.158 239.136ZM506.158 238.233C506.607 238.233 506.976 238.118 507.266 237.888C507.556 237.658 507.77 237.355 507.909 236.98C508.049 236.605 508.118 236.199 508.118 235.761C508.118 235.324 508.049 234.916 507.909 234.538C507.77 234.161 507.556 233.855 507.266 233.622C506.976 233.389 506.607 233.273 506.158 233.273C505.709 233.273 505.34 233.389 505.05 233.622C504.76 233.855 504.546 234.161 504.407 234.538C504.267 234.916 504.198 235.324 504.198 235.761C504.198 236.199 504.267 236.605 504.407 236.98C504.546 237.355 504.76 237.658 505.05 237.888C505.34 238.118 505.709 238.233 506.158 238.233ZM515.777 232.455L513.356 239H512.334L509.913 232.455H511.004L512.811 237.67H512.879L514.686 232.455H515.777Z" fill="#475467"/>
<path d="M546.094 239H543.401V230.273H546.213C547.06 230.273 547.784 230.447 548.386 230.797C548.989 231.143 549.45 231.642 549.771 232.293C550.092 232.94 550.253 233.716 550.253 234.619C550.253 235.528 550.091 236.311 549.767 236.967C549.443 237.621 548.972 238.124 548.352 238.476C547.733 238.825 546.98 239 546.094 239ZM544.457 238.062H546.026C546.747 238.062 547.345 237.923 547.82 237.645C548.294 237.366 548.648 236.97 548.881 236.456C549.114 235.942 549.23 235.33 549.23 234.619C549.23 233.915 549.115 233.308 548.885 232.8C548.655 232.288 548.311 231.896 547.854 231.624C547.396 231.348 546.827 231.21 546.145 231.21H544.457V238.062ZM554.633 239.136C554.003 239.136 553.459 238.997 553.001 238.719C552.547 238.438 552.196 238.045 551.949 237.543C551.704 237.037 551.582 236.449 551.582 235.778C551.582 235.108 551.704 234.517 551.949 234.006C552.196 233.491 552.54 233.091 552.98 232.804C553.423 232.514 553.94 232.369 554.531 232.369C554.872 232.369 555.209 232.426 555.541 232.54C555.874 232.653 556.176 232.838 556.449 233.094C556.722 233.347 556.939 233.682 557.101 234.099C557.263 234.517 557.344 235.031 557.344 235.642V236.068H552.298V235.199H556.321C556.321 234.83 556.247 234.5 556.099 234.21C555.954 233.92 555.747 233.692 555.477 233.524C555.21 233.357 554.895 233.273 554.531 233.273C554.131 233.273 553.784 233.372 553.491 233.571C553.202 233.767 552.979 234.023 552.822 234.338C552.666 234.653 552.588 234.991 552.588 235.352V235.932C552.588 236.426 552.673 236.845 552.844 237.189C553.017 237.53 553.257 237.79 553.564 237.969C553.871 238.145 554.227 238.233 554.633 238.233C554.898 238.233 555.136 238.196 555.349 238.122C555.565 238.045 555.751 237.932 555.908 237.781C556.064 237.628 556.185 237.437 556.27 237.21L557.241 237.483C557.139 237.812 556.967 238.102 556.726 238.352C556.484 238.599 556.186 238.793 555.831 238.932C555.476 239.068 555.077 239.136 554.633 239.136ZM561.533 239.136C560.919 239.136 560.391 238.991 559.947 238.702C559.504 238.412 559.163 238.013 558.925 237.504C558.686 236.996 558.567 236.415 558.567 235.761C558.567 235.097 558.689 234.51 558.933 234.001C559.18 233.49 559.524 233.091 559.964 232.804C560.408 232.514 560.925 232.369 561.516 232.369C561.976 232.369 562.391 232.455 562.76 232.625C563.129 232.795 563.432 233.034 563.668 233.341C563.903 233.648 564.05 234.006 564.106 234.415H563.101C563.024 234.116 562.854 233.852 562.589 233.622C562.328 233.389 561.976 233.273 561.533 233.273C561.141 233.273 560.797 233.375 560.501 233.58C560.209 233.781 559.98 234.067 559.815 234.436C559.653 234.803 559.572 235.233 559.572 235.727C559.572 236.233 559.652 236.673 559.811 237.048C559.973 237.423 560.2 237.714 560.493 237.922C560.788 238.129 561.135 238.233 561.533 238.233C561.794 238.233 562.031 238.188 562.244 238.097C562.457 238.006 562.638 237.875 562.785 237.705C562.933 237.534 563.038 237.33 563.101 237.091H564.106C564.05 237.477 563.909 237.825 563.685 238.135C563.463 238.442 563.169 238.686 562.802 238.868C562.439 239.047 562.016 239.136 561.533 239.136Z" fill="#475467"/>
<mask id="mask0_110_151" style="mask-type:alpha" maskUnits="userSpaceOnUse" x="1" y="46" width="588" height="167">
<rect width="588" height="167" transform="translate(1 46)" fill="url(#paint0_linear_110_151)"/>
</mask>
<g mask="url(#mask0_110_151)">
<g style="mix-blend-mode:multiply" opacity="0.1">
<path d="M14.3258 90.7351L1 94.2969V213H589V51.0312L576.507 56.9468H563.181L556.935 62.4859H548.606C546.385 63.409 541.777 65.2554 541.111 65.2554C540.444 65.2554 536.113 66.3632 534.031 66.9171L516.125 68.5788L505.714 70.7945L489.057 68.5788L480.312 66.9171L467.819 70.7945H454.909L444.082 66.9171C439.918 66.3632 431.423 65.2554 430.756 65.2554C430.09 65.2554 424.649 64.1476 422.011 63.5937H415.348L399.524 65.2554L385.782 66.9171L379.535 70.7945L360.796 72.4562L351.218 74.1179L340.391 76.8874L329.98 83.5343H325.399L312.907 81.8726L300.83 76.8874L290.419 74.1179H284.173L273.346 72.4562L257.938 74.1179H243.363L228.788 76.8874L214.212 80.2109L203.385 83.5343L191.725 85.196L175.901 83.5343L163.408 85.196L150.915 86.8578L139.255 85.196L123.431 89.0734L110.105 86.8578L96.779 89.0734H83.8697L70.1275 90.7351H55.9688L41.8102 92.3968L28.068 89.0734L14.3258 90.7351Z" fill="#10B981"/>
</g>
</g>
<path d="M1 94.2969L14.3258 90.7351L28.068 89.0734L41.8102 92.3968L55.9688 90.7351H70.1275L83.8697 89.0734H96.779L110.105 86.8578L123.431 89.0734L139.255 85.196L150.915 86.8578L163.408 85.196L175.901 83.5343L191.725 85.196L203.385 83.5343L214.212 80.2109L228.788 76.8874L243.363 74.1179H257.938L273.346 72.4562L284.173 74.1179H290.419L300.83 76.8874L312.907 81.8726L325.399 83.5343H329.98L340.391 76.8874L351.218 74.1179L360.796 72.4562L379.535 70.7945L385.782 66.9171L399.524 65.2554L415.348 63.5937H422.011C424.649 64.1476 430.09 65.2554 430.756 65.2554C431.423 65.2554 439.918 66.3632 444.082 66.9171L454.909 70.7945H467.819L480.312 66.9171L489.057 68.5788L505.714 70.7945L516.125 68.5788L534.031 66.9171C536.113 66.3632 540.444 65.2554 541.11 65.2554C541.777 65.2554 546.385 63.409 548.606 62.4859H556.935L563.181 56.9468H576.507L589 51.0312" stroke="#10B981" stroke-width="2" stroke-linecap="round" stroke-linejoin="round"/>
<defs>
<linearGradient id="paint0_linear_110_151" x1="294" y1="0" x2="294" y2="167" gradientUnits="userSpaceOnUse">
<stop/>
<stop offset="1" stop-opacity="0"/>
</linearGradient>
</defs>
</svg>
