<svg width="810" height="310" viewBox="0 0 810 310" fill="none" xmlns="http://www.w3.org/2000/svg">
<path d="M4.27273 180.309L4.27273 178.711L11.0568 175.932L11.0568 175.83L4.27273 173.052L4.27273 171.454L13 171.454L13 172.706L6.68466 172.706L6.68466 172.787L12.9872 175.361L12.9872 176.401L6.6804 178.975L6.6804 179.056L13 179.056L13 180.309L4.27273 180.309ZM13.1449 167.737C13.1449 168.151 13.0682 168.526 12.9148 168.862C12.7585 169.197 12.5327 169.463 12.2372 169.659C11.9418 169.852 11.5795 169.948 11.1506 169.948C10.7812 169.948 10.4773 169.877 10.2386 169.735C10 169.593 9.81108 169.401 9.67187 169.16C9.53267 168.919 9.42756 168.649 9.35653 168.35C9.28551 168.052 9.23153 167.748 9.1946 167.438C9.14915 167.046 9.11222 166.728 9.08381 166.484C9.05256 166.24 9.00284 166.062 8.93466 165.951C8.86648 165.84 8.75568 165.785 8.60227 165.785L8.57244 165.785C8.20028 165.785 7.91193 165.89 7.70739 166.1C7.50284 166.308 7.40057 166.617 7.40057 167.029C7.40057 167.458 7.49574 167.796 7.68608 168.044C7.87358 168.288 8.08239 168.457 8.3125 168.551L8.03977 169.748C7.64204 169.606 7.32102 169.399 7.0767 169.126C6.82954 168.85 6.65057 168.534 6.53977 168.176C6.42614 167.818 6.36932 167.441 6.36932 167.046C6.36932 166.785 6.40057 166.508 6.46307 166.215C6.52273 165.92 6.63352 165.644 6.79545 165.389C6.95739 165.13 7.18892 164.919 7.49006 164.754C7.78835 164.589 8.17614 164.507 8.65341 164.507L13 164.507L13 165.751L12.1051 165.751L12.1051 165.802C12.2699 165.884 12.4318 166.008 12.5909 166.173C12.75 166.338 12.8821 166.549 12.9872 166.808C13.0923 167.066 13.1449 167.376 13.1449 167.737ZM12.1222 167.46C12.1222 167.107 12.0526 166.806 11.9134 166.556C11.7741 166.303 11.5923 166.112 11.3679 165.981C11.1406 165.847 10.8977 165.781 10.6392 165.781L9.79545 165.781C9.84091 165.826 9.88352 165.914 9.92329 166.045C9.96023 166.173 9.9929 166.319 10.0213 166.484C10.0469 166.649 10.071 166.809 10.0937 166.965C10.1136 167.122 10.1307 167.252 10.1449 167.357C10.1761 167.605 10.2287 167.83 10.3026 168.035C10.3764 168.237 10.483 168.399 10.6222 168.521C10.7585 168.64 10.9403 168.7 11.1676 168.7C11.483 168.7 11.7216 168.583 11.8835 168.35C12.0426 168.117 12.1222 167.82 12.1222 167.46ZM13 162.809L6.45454 162.809L6.45454 161.578L7.49432 161.578L7.49432 161.51C7.14204 161.39 6.86506 161.18 6.66335 160.879C6.45881 160.575 6.35653 160.231 6.35653 159.848C6.35653 159.768 6.35937 159.675 6.36506 159.567C6.37074 159.456 6.37784 159.369 6.38636 159.307L7.60511 159.307C7.59091 159.358 7.57528 159.449 7.55824 159.579C7.53835 159.71 7.52841 159.841 7.52841 159.971C7.52841 160.273 7.59233 160.541 7.72017 160.777C7.84517 161.01 8.01989 161.194 8.24432 161.331C8.46591 161.467 8.71875 161.535 9.00284 161.535L13 161.535L13 162.809ZM10.7798 157.032L9.22443 157.041L9.22443 156.819L6.45454 154.211L6.45454 152.686L9.60795 155.66L9.60795 155.86L10.7798 157.032ZM13 158.204L4.27273 158.204L4.27273 156.93L13 156.93L13 158.204ZM13 154.07L9.8892 156.414L8.99858 155.536L13 152.507L13 154.07ZM13.1321 148.973C13.1321 149.618 12.9943 150.173 12.7187 150.639C12.4403 151.102 12.0497 151.46 11.5469 151.713C11.0412 151.963 10.4489 152.088 9.76988 152.088C9.09943 152.088 8.50852 151.963 7.99716 151.713C7.48579 151.46 7.08665 151.108 6.79971 150.656C6.51278 150.202 6.36932 149.67 6.36932 149.062C6.36932 148.693 6.4304 148.335 6.55256 147.988C6.67471 147.642 6.86648 147.331 7.12784 147.055C7.3892 146.78 7.72869 146.562 8.14631 146.403C8.56108 146.244 9.06534 146.165 9.65909 146.165L10.1108 146.165L10.1108 151.368L9.15625 151.368L9.15625 147.413C8.82102 147.413 8.52415 147.481 8.26562 147.618C8.00426 147.754 7.79829 147.946 7.64773 148.193C7.49716 148.437 7.42187 148.724 7.42187 149.054C7.42187 149.412 7.50994 149.724 7.68608 149.991C7.85937 150.256 8.08665 150.46 8.3679 150.605C8.64631 150.747 8.94886 150.818 9.27557 150.818L10.0213 150.818C10.4588 150.818 10.831 150.741 11.1378 150.588C11.4446 150.432 11.679 150.214 11.8409 149.936C12 149.657 12.0795 149.332 12.0795 148.96C12.0795 148.719 12.0455 148.498 11.9773 148.3C11.9062 148.101 11.8011 147.929 11.6619 147.784C11.5227 147.639 11.3509 147.528 11.1463 147.452L11.3636 146.246C11.7187 146.342 12.0298 146.515 12.2969 146.765C12.5611 147.013 12.767 147.324 12.9148 147.699C13.0597 148.071 13.1321 148.496 13.1321 148.973ZM6.45454 141.695L7.47727 141.695L7.47727 145.271L6.45454 145.271L6.45454 141.695ZM4.88636 144.312L4.88636 143.038L11.0781 143.038C11.3253 143.038 11.5114 143.001 11.6364 142.927C11.7585 142.853 11.8423 142.758 11.8878 142.642C11.9304 142.522 11.9517 142.393 11.9517 142.254C11.9517 142.151 11.9446 142.062 11.9304 141.985C11.9162 141.909 11.9048 141.849 11.8963 141.806L12.9489 141.576C12.9773 141.65 13.0057 141.755 13.0341 141.892C13.0653 142.028 13.0824 142.198 13.0852 142.403C13.0909 142.738 13.0312 143.051 12.9062 143.34C12.7812 143.63 12.5881 143.865 12.3267 144.044C12.0653 144.222 11.7372 144.312 11.3423 144.312L4.88636 144.312ZM5.40625 137.438L4.27273 137.438L4.27272 130.684L5.40625 130.684L5.40625 133.407L13 133.407L13 134.72L5.40625 134.72L5.40625 137.438ZM13 129.974L6.45454 129.974L6.45454 128.742L7.49432 128.742L7.49432 128.674C7.14204 128.555 6.86505 128.344 6.66335 128.043C6.4588 127.739 6.35653 127.395 6.35653 127.012C6.35653 126.932 6.35937 126.839 6.36505 126.731C6.37074 126.62 6.37784 126.533 6.38636 126.471L7.60511 126.471C7.59091 126.522 7.57528 126.613 7.55824 126.743C7.53835 126.874 7.52841 127.005 7.52841 127.135C7.52841 127.437 7.59233 127.705 7.72017 127.941C7.84517 128.174 8.01988 128.358 8.24432 128.495C8.46591 128.631 8.71875 128.699 9.00284 128.699L13 128.699L13 129.974ZM13.1321 122.781C13.1321 123.426 12.9943 123.982 12.7187 124.448C12.4403 124.911 12.0497 125.269 11.5469 125.521C11.0412 125.771 10.4489 125.896 9.76988 125.896C9.09943 125.896 8.50852 125.771 7.99716 125.521C7.48579 125.269 7.08665 124.916 6.79971 124.465C6.51278 124.01 6.36932 123.479 6.36932 122.871C6.36932 122.502 6.4304 122.144 6.55255 121.797C6.67471 121.45 6.86647 121.139 7.12784 120.864C7.3892 120.588 7.72869 120.371 8.1463 120.212C8.56108 120.053 9.06534 119.973 9.65909 119.973L10.1108 119.973L10.1108 125.176L9.15625 125.176L9.15625 121.222C8.82102 121.222 8.52415 121.29 8.26562 121.426C8.00426 121.563 7.79829 121.754 7.64772 122.002C7.49716 122.246 7.42187 122.533 7.42187 122.862C7.42187 123.22 7.50994 123.533 7.68608 123.8C7.85937 124.064 8.08665 124.269 8.3679 124.414C8.6463 124.556 8.94886 124.627 9.27557 124.627L10.0213 124.627C10.4588 124.627 10.831 124.55 11.1378 124.396C11.4446 124.24 11.679 124.023 11.8409 123.744C12 123.466 12.0795 123.141 12.0795 122.769C12.0795 122.527 12.0455 122.307 11.9773 122.108C11.9062 121.909 11.8011 121.737 11.6619 121.593C11.5227 121.448 11.3508 121.337 11.1463 121.26L11.3636 120.054C11.7187 120.151 12.0298 120.324 12.2969 120.574C12.5611 120.821 12.767 121.132 12.9148 121.507C13.0597 121.879 13.1321 122.304 13.1321 122.781ZM9.11363 117.285L13 117.285L13 118.559L6.45454 118.559L6.45454 117.336L7.51988 117.336L7.51988 117.256C7.17329 117.105 6.89488 116.869 6.68466 116.548C6.47443 116.224 6.36932 115.817 6.36932 115.325C6.36932 114.879 6.46307 114.488 6.65057 114.153C6.83522 113.818 7.11079 113.558 7.47727 113.373C7.84375 113.189 8.29687 113.096 8.83664 113.096L13 113.096L13 114.371L8.99005 114.371C8.51562 114.371 8.14488 114.494 7.87784 114.741C7.60795 114.988 7.47301 115.328 7.47301 115.76C7.47301 116.055 7.53693 116.318 7.66477 116.548C7.79261 116.775 7.98011 116.956 8.22727 117.089C8.47159 117.22 8.76704 117.285 9.11363 117.285ZM13.1278 108.937C13.1278 109.466 12.9929 109.937 12.723 110.352C12.4503 110.764 12.0625 111.088 11.5597 111.324C11.054 111.557 10.4474 111.673 9.74005 111.673C9.03267 111.673 8.42755 111.555 7.92471 111.319C7.42187 111.081 7.03693 110.754 6.76988 110.339C6.50284 109.925 6.36932 109.454 6.36932 108.929C6.36932 108.523 6.4375 108.196 6.57386 107.949C6.70738 107.699 6.86363 107.506 7.04261 107.369C7.22159 107.23 7.37926 107.122 7.51562 107.045L7.51562 106.969L4.27272 106.969L4.27272 105.694L13 105.694L13 106.939L11.9815 106.939L11.9815 107.045C12.1207 107.122 12.2798 107.233 12.4588 107.378C12.6378 107.52 12.794 107.716 12.9276 107.966C13.0611 108.216 13.1278 108.54 13.1278 108.937ZM12.0412 108.656C12.0412 108.29 11.9446 107.98 11.7514 107.727C11.5554 107.471 11.2841 107.278 10.9375 107.148C10.5909 107.014 10.1875 106.947 9.72727 106.947C9.27272 106.947 8.875 107.013 8.53409 107.143C8.19318 107.274 7.92755 107.466 7.73721 107.719C7.54687 107.971 7.4517 108.284 7.4517 108.656C7.4517 109.04 7.55113 109.359 7.75 109.615C7.94886 109.871 8.22017 110.064 8.56392 110.194C8.90767 110.322 9.29545 110.386 9.72727 110.386C10.1648 110.386 10.5582 110.321 10.9077 110.19C11.2571 110.059 11.5341 109.866 11.7386 109.611C11.9403 109.352 12.0412 109.034 12.0412 108.656Z" fill="#475467"/>
<circle cx="516" cy="10" r="4" fill="#FFA012"/>
<path d="M528.358 4.81818H529.77L532.594 9.57102H532.713L535.537 4.81818H536.949L533.27 10.804V15H532.037V10.804L528.358 4.81818ZM540.407 15.1591C539.717 15.1591 539.112 14.995 538.592 14.6669C538.075 14.3388 537.671 13.8797 537.379 13.2898C537.091 12.6998 536.946 12.0104 536.946 11.2216C536.946 10.4261 537.091 9.73177 537.379 9.13849C537.671 8.54522 538.075 8.08452 538.592 7.75639C539.112 7.42827 539.717 7.2642 540.407 7.2642C541.096 7.2642 541.699 7.42827 542.216 7.75639C542.737 8.08452 543.141 8.54522 543.429 9.13849C543.721 9.73177 543.867 10.4261 543.867 11.2216C543.867 12.0104 543.721 12.6998 543.429 13.2898C543.141 13.8797 542.737 14.3388 542.216 14.6669C541.699 14.995 541.096 15.1591 540.407 15.1591ZM540.407 14.1051C540.93 14.1051 541.361 13.9709 541.699 13.7024C542.037 13.4339 542.288 13.081 542.45 12.6435C542.612 12.206 542.694 11.732 542.694 11.2216C542.694 10.7112 542.612 10.2356 542.45 9.79474C542.288 9.35393 542.037 8.99763 541.699 8.72585C541.361 8.45407 540.93 8.31818 540.407 8.31818C539.883 8.31818 539.452 8.45407 539.114 8.72585C538.776 8.99763 538.526 9.35393 538.363 9.79474C538.201 10.2356 538.12 10.7112 538.12 11.2216C538.12 11.732 538.201 12.206 538.363 12.6435C538.526 13.081 538.776 13.4339 539.114 13.7024C539.452 13.9709 539.883 14.1051 540.407 14.1051ZM550.47 11.8778V7.36364H551.644V15H550.47V13.7074H550.391C550.212 14.0952 549.933 14.425 549.556 14.6967C549.178 14.9652 548.7 15.0994 548.124 15.0994C547.646 15.0994 547.222 14.995 546.851 14.7862C546.48 14.5741 546.188 14.2559 545.976 13.8317C545.764 13.4041 545.658 12.8655 545.658 12.2159V7.36364H546.831V12.1364C546.831 12.6932 546.987 13.1373 547.298 13.4688C547.613 13.8002 548.014 13.9659 548.502 13.9659C548.793 13.9659 549.09 13.8913 549.392 13.7422C549.696 13.593 549.952 13.3643 550.157 13.0561C550.366 12.7479 550.47 12.3551 550.47 11.8778ZM553.793 15V7.36364H554.926V8.51705H555.006C555.145 8.1392 555.397 7.83262 555.761 7.5973C556.126 7.36198 556.537 7.24432 556.994 7.24432C557.08 7.24432 557.188 7.24597 557.317 7.24929C557.447 7.2526 557.545 7.25758 557.611 7.2642V8.45739C557.571 8.44744 557.48 8.43253 557.337 8.41264C557.198 8.38944 557.051 8.37784 556.895 8.37784C556.524 8.37784 556.192 8.45573 555.901 8.61151C555.612 8.76397 555.384 8.97609 555.214 9.24787C555.049 9.51634 554.966 9.82292 554.966 10.1676V15H553.793ZM563.098 15V4.81818H566.539C567.337 4.81818 567.99 4.96236 568.497 5.25071C569.008 5.53575 569.386 5.92188 569.631 6.40909C569.876 6.89631 569.999 7.43987 569.999 8.03977C569.999 8.63968 569.876 9.1849 569.631 9.67543C569.389 10.166 569.014 10.5571 568.507 10.8487C568 11.1371 567.351 11.2812 566.558 11.2812H564.093V10.1875H566.519C567.066 10.1875 567.505 10.093 567.836 9.90412C568.168 9.7152 568.408 9.45999 568.557 9.13849C568.709 8.81368 568.786 8.44744 568.786 8.03977C568.786 7.6321 568.709 7.26752 568.557 6.94602C568.408 6.62453 568.166 6.37263 567.831 6.19034C567.496 6.00473 567.052 5.91193 566.499 5.91193H564.331V15H563.098ZM574.846 15.1591C574.157 15.1591 573.552 14.995 573.031 14.6669C572.514 14.3388 572.11 13.8797 571.818 13.2898C571.53 12.6998 571.386 12.0104 571.386 11.2216C571.386 10.4261 571.53 9.73177 571.818 9.13849C572.11 8.54522 572.514 8.08452 573.031 7.75639C573.552 7.42827 574.157 7.2642 574.846 7.2642C575.535 7.2642 576.139 7.42827 576.656 7.75639C577.176 8.08452 577.58 8.54522 577.869 9.13849C578.16 9.73177 578.306 10.4261 578.306 11.2216C578.306 12.0104 578.16 12.6998 577.869 13.2898C577.58 13.8797 577.176 14.3388 576.656 14.6669C576.139 14.995 575.535 15.1591 574.846 15.1591ZM574.846 14.1051C575.37 14.1051 575.801 13.9709 576.139 13.7024C576.477 13.4339 576.727 13.081 576.889 12.6435C577.052 12.206 577.133 11.732 577.133 11.2216C577.133 10.7112 577.052 10.2356 576.889 9.79474C576.727 9.35393 576.477 8.99763 576.139 8.72585C575.801 8.45407 575.37 8.31818 574.846 8.31818C574.322 8.31818 573.892 8.45407 573.553 8.72585C573.215 8.99763 572.965 9.35393 572.803 9.79474C572.64 10.2356 572.559 10.7112 572.559 11.2216C572.559 11.732 572.64 12.206 572.803 12.6435C572.965 13.081 573.215 13.4339 573.553 13.7024C573.892 13.9709 574.322 14.1051 574.846 14.1051ZM585.506 9.07386L584.452 9.37216C584.386 9.1965 584.288 9.0258 584.159 8.86009C584.033 8.69105 583.861 8.55185 583.642 8.44247C583.423 8.3331 583.143 8.27841 582.802 8.27841C582.335 8.27841 581.945 8.38613 581.634 8.60156C581.325 8.81368 581.171 9.08381 581.171 9.41193C581.171 9.7036 581.277 9.93395 581.489 10.103C581.701 10.272 582.033 10.4129 582.484 10.5256L583.617 10.804C584.3 10.9697 584.809 11.2232 585.143 11.5646C585.478 11.9027 585.646 12.3385 585.646 12.8722C585.646 13.3097 585.52 13.7008 585.268 14.0455C585.019 14.3902 584.671 14.6619 584.224 14.8608C583.776 15.0597 583.256 15.1591 582.663 15.1591C581.884 15.1591 581.239 14.9901 580.729 14.652C580.218 14.3139 579.895 13.8201 579.759 13.1705L580.873 12.892C580.979 13.303 581.179 13.6113 581.474 13.8168C581.773 14.0223 582.162 14.125 582.643 14.125C583.19 14.125 583.624 14.009 583.945 13.777C584.27 13.5417 584.433 13.2599 584.433 12.9318C584.433 12.6667 584.34 12.4446 584.154 12.2656C583.969 12.0833 583.683 11.9474 583.299 11.858L582.026 11.5597C581.327 11.3939 580.813 11.1371 580.485 10.7891C580.16 10.4377 579.998 9.99858 579.998 9.47159C579.998 9.04072 580.119 8.65956 580.361 8.32812C580.606 7.99669 580.939 7.73651 581.36 7.54758C581.784 7.35866 582.265 7.2642 582.802 7.2642C583.558 7.2642 584.151 7.42992 584.582 7.76136C585.016 8.0928 585.324 8.5303 585.506 9.07386ZM587.412 15V7.36364H588.585V15H587.412ZM588.008 6.09091C587.78 6.09091 587.582 6.01302 587.417 5.85724C587.254 5.70147 587.173 5.5142 587.173 5.29545C587.173 5.0767 587.254 4.88944 587.417 4.73366C587.582 4.57789 587.78 4.5 588.008 4.5C588.237 4.5 588.433 4.57789 588.595 4.73366C588.761 4.88944 588.844 5.0767 588.844 5.29545C588.844 5.5142 588.761 5.70147 588.595 5.85724C588.433 6.01302 588.237 6.09091 588.008 6.09091ZM594.055 7.36364V8.35795H590.098V7.36364H594.055ZM591.251 5.53409H592.424V12.8125C592.424 13.1439 592.472 13.3925 592.569 13.5582C592.668 13.7206 592.794 13.83 592.946 13.8864C593.102 13.9394 593.266 13.9659 593.439 13.9659C593.568 13.9659 593.674 13.9593 593.757 13.946C593.84 13.9295 593.906 13.9162 593.956 13.9062L594.194 14.9602C594.115 14.9901 594.004 15.0199 593.861 15.0497C593.719 15.0829 593.538 15.0994 593.319 15.0994C592.988 15.0994 592.663 15.0282 592.345 14.8857C592.03 14.7431 591.768 14.526 591.559 14.2344C591.354 13.9427 591.251 13.5748 591.251 13.1307V5.53409ZM595.82 15V7.36364H596.993V15H595.82ZM596.417 6.09091C596.188 6.09091 595.991 6.01302 595.825 5.85724C595.663 5.70147 595.581 5.5142 595.581 5.29545C595.581 5.0767 595.663 4.88944 595.825 4.73366C595.991 4.57789 596.188 4.5 596.417 4.5C596.645 4.5 596.841 4.57789 597.003 4.73366C597.169 4.88944 597.252 5.0767 597.252 5.29545C597.252 5.5142 597.169 5.70147 597.003 5.85724C596.841 6.01302 596.645 6.09091 596.417 6.09091ZM602.244 15.1591C601.555 15.1591 600.95 14.995 600.43 14.6669C599.913 14.3388 599.508 13.8797 599.217 13.2898C598.928 12.6998 598.784 12.0104 598.784 11.2216C598.784 10.4261 598.928 9.73177 599.217 9.13849C599.508 8.54522 599.913 8.08452 600.43 7.75639C600.95 7.42827 601.555 7.2642 602.244 7.2642C602.934 7.2642 603.537 7.42827 604.054 7.75639C604.575 8.08452 604.979 8.54522 605.267 9.13849C605.559 9.73177 605.705 10.4261 605.705 11.2216C605.705 12.0104 605.559 12.6998 605.267 13.2898C604.979 13.8797 604.575 14.3388 604.054 14.6669C603.537 14.995 602.934 15.1591 602.244 15.1591ZM602.244 14.1051C602.768 14.1051 603.199 13.9709 603.537 13.7024C603.875 13.4339 604.125 13.081 604.288 12.6435C604.45 12.206 604.531 11.732 604.531 11.2216C604.531 10.7112 604.45 10.2356 604.288 9.79474C604.125 9.35393 603.875 8.99763 603.537 8.72585C603.199 8.45407 602.768 8.31818 602.244 8.31818C601.721 8.31818 601.29 8.45407 600.952 8.72585C600.614 8.99763 600.364 9.35393 600.201 9.79474C600.039 10.2356 599.958 10.7112 599.958 11.2216C599.958 11.732 600.039 12.206 600.201 12.6435C600.364 13.081 600.614 13.4339 600.952 13.7024C601.29 13.9709 601.721 14.1051 602.244 14.1051ZM608.669 10.4062V15H607.496V7.36364H608.629V8.55682H608.729C608.908 8.16903 609.179 7.85748 609.544 7.62216C609.909 7.38352 610.379 7.2642 610.956 7.2642C611.473 7.2642 611.925 7.37027 612.313 7.58239C612.701 7.79119 613.003 8.10938 613.218 8.53693C613.433 8.96117 613.541 9.49811 613.541 10.1477V15H612.368V10.2273C612.368 9.62737 612.212 9.16004 611.901 8.82528C611.589 8.48722 611.161 8.31818 610.618 8.31818C610.243 8.31818 609.909 8.39938 609.614 8.56179C609.322 8.72419 609.092 8.96117 608.923 9.27273C608.754 9.58428 608.669 9.96212 608.669 10.4062ZM619.623 15V7.36364H620.796V15H619.623ZM620.219 6.09091C619.991 6.09091 619.793 6.01302 619.628 5.85724C619.465 5.70147 619.384 5.5142 619.384 5.29545C619.384 5.0767 619.465 4.88944 619.628 4.73366C619.793 4.57789 619.991 4.5 620.219 4.5C620.448 4.5 620.644 4.57789 620.806 4.73366C620.972 4.88944 621.055 5.0767 621.055 5.29545C621.055 5.5142 620.972 5.70147 620.806 5.85724C620.644 6.01302 620.448 6.09091 620.219 6.09091ZM624.118 10.4062V15H622.945V7.36364H624.078V8.55682H624.178C624.357 8.16903 624.629 7.85748 624.993 7.62216C625.358 7.38352 625.828 7.2642 626.405 7.2642C626.922 7.2642 627.375 7.37027 627.762 7.58239C628.15 7.79119 628.452 8.10938 628.667 8.53693C628.883 8.96117 628.99 9.49811 628.99 10.1477V15H627.817V10.2273C627.817 9.62737 627.661 9.16004 627.35 8.82528C627.038 8.48722 626.611 8.31818 626.067 8.31818C625.693 8.31818 625.358 8.39938 625.063 8.56179C624.771 8.72419 624.541 8.96117 624.372 9.27273C624.203 9.58428 624.118 9.96212 624.118 10.4062ZM635.231 4.81818H636.703L640.163 13.2699H640.282L643.742 4.81818H645.214V15H644.061V7.2642H643.961L640.779 15H639.666L636.484 7.2642H636.384V15H635.231V4.81818ZM649.774 15.179C649.29 15.179 648.851 15.0878 648.457 14.9055C648.062 14.7199 647.749 14.4531 647.517 14.1051C647.285 13.7538 647.169 13.3295 647.169 12.8324C647.169 12.3949 647.255 12.0402 647.428 11.7685C647.6 11.4934 647.83 11.2779 648.119 11.1222C648.407 10.9664 648.725 10.8504 649.073 10.7741C649.424 10.6946 649.777 10.6316 650.132 10.5852C650.596 10.5256 650.972 10.4808 651.261 10.451C651.552 10.4179 651.764 10.3632 651.897 10.2869C652.033 10.2107 652.101 10.0781 652.101 9.8892V9.84943C652.101 9.3589 651.967 8.97775 651.698 8.70597C651.433 8.43419 651.03 8.2983 650.49 8.2983C649.93 8.2983 649.491 8.42093 649.173 8.66619C648.854 8.91146 648.631 9.1733 648.501 9.4517L647.388 9.05398C647.587 8.58996 647.852 8.22869 648.183 7.97017C648.518 7.70833 648.883 7.52604 649.277 7.4233C649.675 7.31723 650.066 7.2642 650.45 7.2642C650.696 7.2642 650.977 7.29403 651.295 7.35369C651.617 7.41004 651.927 7.5277 652.225 7.70668C652.527 7.88565 652.777 8.15578 652.976 8.51705C653.175 8.87831 653.274 9.36222 653.274 9.96875V15H652.101V13.9659H652.041C651.962 14.1316 651.829 14.3089 651.643 14.4979C651.458 14.6868 651.211 14.8475 650.903 14.9801C650.594 15.1127 650.218 15.179 649.774 15.179ZM649.953 14.125C650.417 14.125 650.808 14.0339 651.126 13.8516C651.448 13.6693 651.69 13.4339 651.852 13.1456C652.018 12.8572 652.101 12.554 652.101 12.2358V11.1619C652.051 11.2216 651.942 11.2763 651.773 11.326C651.607 11.3724 651.415 11.4138 651.196 11.4503C650.981 11.4834 650.77 11.5133 650.565 11.5398C650.362 11.563 650.198 11.5829 650.072 11.5994C649.768 11.6392 649.482 11.7038 649.217 11.7933C648.955 11.8795 648.743 12.0104 648.581 12.1861C648.422 12.3584 648.342 12.5937 648.342 12.892C648.342 13.2997 648.493 13.608 648.795 13.8168C649.1 14.0223 649.486 14.125 649.953 14.125ZM655.416 15V7.36364H656.549V8.51705H656.629C656.768 8.1392 657.02 7.83262 657.384 7.5973C657.749 7.36198 658.16 7.24432 658.617 7.24432C658.704 7.24432 658.811 7.24597 658.941 7.24929C659.07 7.2526 659.168 7.25758 659.234 7.2642V8.45739C659.194 8.44744 659.103 8.43253 658.96 8.41264C658.821 8.38944 658.674 8.37784 658.518 8.37784C658.147 8.37784 657.815 8.45573 657.524 8.61151C657.235 8.76397 657.007 8.97609 656.838 9.24787C656.672 9.51634 656.589 9.82292 656.589 10.1676V15H655.416ZM661.718 12.2159L661.699 10.7642H661.937L665.278 7.36364H666.73L663.17 10.9631H663.071L661.718 12.2159ZM660.625 15V4.81818H661.798V15H660.625ZM665.477 15L662.494 11.2216L663.329 10.4062L666.968 15H665.477ZM671.127 15.1591C670.391 15.1591 669.757 14.9967 669.223 14.6719C668.693 14.3438 668.283 13.8864 667.995 13.2997C667.71 12.7098 667.567 12.0237 667.567 11.2415C667.567 10.4593 667.71 9.76989 667.995 9.1733C668.283 8.57339 668.684 8.10606 669.198 7.77131C669.715 7.43324 670.318 7.2642 671.008 7.2642C671.406 7.2642 671.798 7.33049 672.186 7.46307C672.574 7.59564 672.927 7.81108 673.245 8.10938C673.563 8.40436 673.817 8.79545 674.006 9.28267C674.195 9.76989 674.289 10.3698 674.289 11.0824V11.5795H668.403V10.5653H673.096C673.096 10.1345 673.01 9.75 672.837 9.41193C672.668 9.07386 672.426 8.80705 672.112 8.61151C671.8 8.41596 671.432 8.31818 671.008 8.31818C670.54 8.31818 670.136 8.43419 669.795 8.66619C669.457 8.89489 669.196 9.19318 669.014 9.56108C668.832 9.92898 668.741 10.3234 668.741 10.7443V11.4205C668.741 11.9972 668.84 12.486 669.039 12.8871C669.241 13.2848 669.521 13.5881 669.879 13.7969C670.237 14.0024 670.653 14.1051 671.127 14.1051C671.435 14.1051 671.714 14.062 671.962 13.9759C672.214 13.8864 672.431 13.7538 672.614 13.5781C672.796 13.3991 672.937 13.1771 673.036 12.9119L674.17 13.2301C674.05 13.6146 673.85 13.9527 673.568 14.2443C673.286 14.5327 672.938 14.758 672.524 14.9205C672.11 15.0795 671.644 15.1591 671.127 15.1591ZM679.395 7.36364V8.35795H675.438V7.36364H679.395ZM676.591 5.53409H677.764V12.8125C677.764 13.1439 677.812 13.3925 677.908 13.5582C678.008 13.7206 678.134 13.83 678.286 13.8864C678.442 13.9394 678.606 13.9659 678.778 13.9659C678.908 13.9659 679.014 13.9593 679.097 13.946C679.179 13.9295 679.246 13.9162 679.295 13.9062L679.534 14.9602C679.455 14.9901 679.344 15.0199 679.201 15.0497C679.058 15.0829 678.878 15.0994 678.659 15.0994C678.328 15.0994 678.003 15.0282 677.685 14.8857C677.37 14.7431 677.108 14.526 676.899 14.2344C676.694 13.9427 676.591 13.5748 676.591 13.1307V5.53409Z" fill="#475467"/>
<circle cx="698" cy="10" r="4" fill="#3E4784"/>
<path d="M719.426 8H718.193C718.12 7.64536 717.993 7.33381 717.81 7.06534C717.631 6.79688 717.413 6.5715 717.154 6.3892C716.899 6.2036 716.616 6.06439 716.304 5.97159C715.992 5.87879 715.668 5.83239 715.33 5.83239C714.713 5.83239 714.155 5.98816 713.654 6.29972C713.157 6.61127 712.761 7.07031 712.466 7.67685C712.174 8.28338 712.028 9.02746 712.028 9.90909C712.028 10.7907 712.174 11.5348 712.466 12.1413C712.761 12.7479 713.157 13.2069 713.654 13.5185C714.155 13.83 714.713 13.9858 715.33 13.9858C715.668 13.9858 715.992 13.9394 716.304 13.8466C716.616 13.7538 716.899 13.6162 717.154 13.4339C717.413 13.2483 717.631 13.0213 717.81 12.7528C717.993 12.4811 718.12 12.1695 718.193 11.8182H719.426C719.333 12.3385 719.164 12.8042 718.919 13.2152C718.674 13.6262 718.369 13.9759 718.004 14.2642C717.64 14.5492 717.23 14.7663 716.776 14.9155C716.326 15.0646 715.843 15.1392 715.33 15.1392C714.461 15.1392 713.689 14.9271 713.013 14.5028C712.337 14.0786 711.805 13.4754 711.417 12.6932C711.029 11.911 710.835 10.983 710.835 9.90909C710.835 8.83523 711.029 7.9072 711.417 7.125C711.805 6.3428 712.337 5.73958 713.013 5.31534C713.689 4.8911 714.461 4.67898 715.33 4.67898C715.843 4.67898 716.326 4.75355 716.776 4.9027C717.23 5.05185 717.64 5.2706 718.004 5.55895C718.369 5.84399 718.674 6.192 718.919 6.60298C719.164 7.01065 719.333 7.47633 719.426 8ZM726.072 11.8778V7.36364H727.245V15H726.072V13.7074H725.992C725.813 14.0952 725.535 14.425 725.157 14.6967C724.779 14.9652 724.302 15.0994 723.725 15.0994C723.248 15.0994 722.824 14.995 722.453 14.7862C722.081 14.5741 721.79 14.2559 721.578 13.8317C721.365 13.4041 721.259 12.8655 721.259 12.2159V7.36364H722.433V12.1364C722.433 12.6932 722.588 13.1373 722.9 13.4688C723.215 13.8002 723.616 13.9659 724.103 13.9659C724.395 13.9659 724.691 13.8913 724.993 13.7422C725.298 13.593 725.553 13.3643 725.759 13.0561C725.968 12.7479 726.072 12.3551 726.072 11.8778ZM729.394 15V7.36364H730.528V8.51705H730.607C730.746 8.1392 730.998 7.83262 731.363 7.5973C731.728 7.36198 732.138 7.24432 732.596 7.24432C732.682 7.24432 732.79 7.24597 732.919 7.24929C733.048 7.2526 733.146 7.25758 733.212 7.2642V8.45739C733.173 8.44744 733.081 8.43253 732.939 8.41264C732.8 8.38944 732.652 8.37784 732.496 8.37784C732.125 8.37784 731.794 8.45573 731.502 8.61151C731.214 8.76397 730.985 8.97609 730.816 9.24787C730.65 9.51634 730.567 9.82292 730.567 10.1676V15H729.394ZM734.603 15V7.36364H735.737V8.51705H735.816C735.955 8.1392 736.207 7.83262 736.572 7.5973C736.936 7.36198 737.347 7.24432 737.805 7.24432C737.891 7.24432 737.999 7.24597 738.128 7.24929C738.257 7.2526 738.355 7.25758 738.421 7.2642V8.45739C738.382 8.44744 738.29 8.43253 738.148 8.41264C738.009 8.38944 737.861 8.37784 737.705 8.37784C737.334 8.37784 737.003 8.45573 736.711 8.61151C736.423 8.76397 736.194 8.97609 736.025 9.24787C735.859 9.51634 735.776 9.82292 735.776 10.1676V15H734.603ZM742.781 15.1591C742.046 15.1591 741.411 14.9967 740.877 14.6719C740.347 14.3438 739.938 13.8864 739.649 13.2997C739.364 12.7098 739.222 12.0237 739.222 11.2415C739.222 10.4593 739.364 9.76989 739.649 9.1733C739.938 8.57339 740.339 8.10606 740.852 7.77131C741.369 7.43324 741.973 7.2642 742.662 7.2642C743.06 7.2642 743.453 7.33049 743.84 7.46307C744.228 7.59564 744.581 7.81108 744.899 8.10938C745.218 8.40436 745.471 8.79545 745.66 9.28267C745.849 9.76989 745.943 10.3698 745.943 11.0824V11.5795H740.057V10.5653H744.75C744.75 10.1345 744.664 9.75 744.492 9.41193C744.323 9.07386 744.081 8.80705 743.766 8.61151C743.454 8.41596 743.086 8.31818 742.662 8.31818C742.195 8.31818 741.79 8.43419 741.449 8.66619C741.111 8.89489 740.851 9.19318 740.669 9.56108C740.486 9.92898 740.395 10.3234 740.395 10.7443V11.4205C740.395 11.9972 740.494 12.486 740.693 12.8871C740.896 13.2848 741.176 13.5881 741.534 13.7969C741.892 14.0024 742.307 14.1051 742.781 14.1051C743.09 14.1051 743.368 14.062 743.617 13.9759C743.869 13.8864 744.086 13.7538 744.268 13.5781C744.45 13.3991 744.591 13.1771 744.691 12.9119L745.824 13.2301C745.705 13.6146 745.504 13.9527 745.222 14.2443C744.941 14.5327 744.593 14.758 744.178 14.9205C743.764 15.0795 743.298 15.1591 742.781 15.1591ZM748.901 10.4062V15H747.728V7.36364H748.862V8.55682H748.961C749.14 8.16903 749.412 7.85748 749.776 7.62216C750.141 7.38352 750.612 7.2642 751.188 7.2642C751.705 7.2642 752.158 7.37027 752.546 7.58239C752.933 7.79119 753.235 8.10938 753.45 8.53693C753.666 8.96117 753.774 9.49811 753.774 10.1477V15H752.6V10.2273C752.6 9.62737 752.445 9.16004 752.133 8.82528C751.821 8.48722 751.394 8.31818 750.85 8.31818C750.476 8.31818 750.141 8.39938 749.846 8.56179C749.554 8.72419 749.324 8.96117 749.155 9.27273C748.986 9.58428 748.901 9.96212 748.901 10.4062ZM759.239 7.36364V8.35795H755.281V7.36364H759.239ZM756.435 5.53409H757.608V12.8125C757.608 13.1439 757.656 13.3925 757.752 13.5582C757.852 13.7206 757.978 13.83 758.13 13.8864C758.286 13.9394 758.45 13.9659 758.622 13.9659C758.751 13.9659 758.857 13.9593 758.94 13.946C759.023 13.9295 759.089 13.9162 759.139 13.9062L759.378 14.9602C759.298 14.9901 759.187 15.0199 759.045 15.0497C758.902 15.0829 758.722 15.0994 758.503 15.0994C758.171 15.0994 757.847 15.0282 757.528 14.8857C757.214 14.7431 756.952 14.526 756.743 14.2344C756.537 13.9427 756.435 13.5748 756.435 13.1307V5.53409ZM765.1 4.81818H766.572L770.032 13.2699H770.151L773.612 4.81818H775.083V15H773.93V7.2642H773.83L770.648 15H769.535L766.353 7.2642H766.254V15H765.1V4.81818ZM779.643 15.179C779.159 15.179 778.72 15.0878 778.326 14.9055C777.931 14.7199 777.618 14.4531 777.386 14.1051C777.154 13.7538 777.038 13.3295 777.038 12.8324C777.038 12.3949 777.124 12.0402 777.297 11.7685C777.469 11.4934 777.699 11.2779 777.988 11.1222C778.276 10.9664 778.594 10.8504 778.942 10.7741C779.294 10.6946 779.647 10.6316 780.001 10.5852C780.465 10.5256 780.841 10.4808 781.13 10.451C781.421 10.4179 781.634 10.3632 781.766 10.2869C781.902 10.2107 781.97 10.0781 781.97 9.8892V9.84943C781.97 9.3589 781.836 8.97775 781.567 8.70597C781.302 8.43419 780.899 8.2983 780.359 8.2983C779.799 8.2983 779.36 8.42093 779.042 8.66619C778.724 8.91146 778.5 9.1733 778.371 9.4517L777.257 9.05398C777.456 8.58996 777.721 8.22869 778.052 7.97017C778.387 7.70833 778.752 7.52604 779.146 7.4233C779.544 7.31723 779.935 7.2642 780.319 7.2642C780.565 7.2642 780.846 7.29403 781.165 7.35369C781.486 7.41004 781.796 7.5277 782.094 7.70668C782.396 7.88565 782.646 8.15578 782.845 8.51705C783.044 8.87831 783.143 9.36222 783.143 9.96875V15H781.97V13.9659H781.91C781.831 14.1316 781.698 14.3089 781.513 14.4979C781.327 14.6868 781.08 14.8475 780.772 14.9801C780.464 15.1127 780.087 15.179 779.643 15.179ZM779.822 14.125C780.286 14.125 780.677 14.0339 780.996 13.8516C781.317 13.6693 781.559 13.4339 781.721 13.1456C781.887 12.8572 781.97 12.554 781.97 12.2358V11.1619C781.92 11.2216 781.811 11.2763 781.642 11.326C781.476 11.3724 781.284 11.4138 781.065 11.4503C780.85 11.4834 780.639 11.5133 780.434 11.5398C780.232 11.563 780.068 11.5829 779.942 11.5994C779.637 11.6392 779.352 11.7038 779.086 11.7933C778.825 11.8795 778.613 12.0104 778.45 12.1861C778.291 12.3584 778.211 12.5937 778.211 12.892C778.211 13.2997 778.362 13.608 778.664 13.8168C778.969 14.0223 779.355 14.125 779.822 14.125ZM785.285 15V7.36364H786.418V8.51705H786.498C786.637 8.1392 786.889 7.83262 787.254 7.5973C787.618 7.36198 788.029 7.24432 788.487 7.24432C788.573 7.24432 788.68 7.24597 788.81 7.24929C788.939 7.2526 789.037 7.25758 789.103 7.2642V8.45739C789.063 8.44744 788.972 8.43253 788.83 8.41264C788.69 8.38944 788.543 8.37784 788.387 8.37784C788.016 8.37784 787.684 8.45573 787.393 8.61151C787.104 8.76397 786.876 8.97609 786.707 9.24787C786.541 9.51634 786.458 9.82292 786.458 10.1676V15H785.285ZM791.588 12.2159L791.568 10.7642H791.806L795.147 7.36364H796.599L793.039 10.9631H792.94L791.588 12.2159ZM790.494 15V4.81818H791.667V15H790.494ZM795.346 15L792.363 11.2216L793.198 10.4062L796.838 15H795.346ZM800.996 15.1591C800.26 15.1591 799.626 14.9967 799.092 14.6719C798.562 14.3438 798.153 13.8864 797.864 13.2997C797.579 12.7098 797.437 12.0237 797.437 11.2415C797.437 10.4593 797.579 9.76989 797.864 9.1733C798.153 8.57339 798.554 8.10606 799.067 7.77131C799.584 7.43324 800.188 7.2642 800.877 7.2642C801.275 7.2642 801.667 7.33049 802.055 7.46307C802.443 7.59564 802.796 7.81108 803.114 8.10938C803.432 8.40436 803.686 8.79545 803.875 9.28267C804.064 9.76989 804.158 10.3698 804.158 11.0824V11.5795H798.272V10.5653H802.965C802.965 10.1345 802.879 9.75 802.706 9.41193C802.537 9.07386 802.296 8.80705 801.981 8.61151C801.669 8.41596 801.301 8.31818 800.877 8.31818C800.41 8.31818 800.005 8.43419 799.664 8.66619C799.326 8.89489 799.066 9.19318 798.883 9.56108C798.701 9.92898 798.61 10.3234 798.61 10.7443V11.4205C798.61 11.9972 798.709 12.486 798.908 12.8871C799.11 13.2848 799.39 13.5881 799.748 13.7969C800.106 14.0024 800.522 14.1051 800.996 14.1051C801.305 14.1051 801.583 14.062 801.831 13.9759C802.083 13.8864 802.3 13.7538 802.483 13.5781C802.665 13.3991 802.806 13.1771 802.905 12.9119L804.039 13.2301C803.92 13.6146 803.719 13.9527 803.437 14.2443C803.156 14.5327 802.808 14.758 802.393 14.9205C801.979 15.0795 801.513 15.1591 800.996 15.1591ZM809.264 7.36364V8.35795H805.307V7.36364H809.264ZM806.46 5.53409H807.633V12.8125C807.633 13.1439 807.681 13.3925 807.778 13.5582C807.877 13.7206 808.003 13.83 808.155 13.8864C808.311 13.9394 808.475 13.9659 808.648 13.9659C808.777 13.9659 808.883 13.9593 808.966 13.946C809.049 13.9295 809.115 13.9162 809.165 13.9062L809.403 14.9602C809.324 14.9901 809.213 15.0199 809.07 15.0497C808.928 15.0829 808.747 15.0994 808.528 15.0994C808.197 15.0994 807.872 15.0282 807.554 14.8857C807.239 14.7431 806.977 14.526 806.768 14.2344C806.563 13.9427 806.46 13.5748 806.46 13.1307V5.53409Z" fill="#475467"/>
<path d="M35.2685 26.2727V35H34.2116V27.3807H34.1605L32.0298 28.7955V27.7216L34.2116 26.2727H35.2685ZM40.625 35.1193C39.983 35.1193 39.4361 34.9446 38.9844 34.5952C38.5327 34.2429 38.1875 33.733 37.9489 33.0653C37.7102 32.3949 37.5909 31.5852 37.5909 30.6364C37.5909 29.6932 37.7102 28.8878 37.9489 28.2202C38.1903 27.5497 38.5369 27.0384 38.9886 26.6861C39.4432 26.331 39.9886 26.1534 40.625 26.1534C41.2614 26.1534 41.8054 26.331 42.2571 26.6861C42.7116 27.0384 43.0582 27.5497 43.2969 28.2202C43.5384 28.8878 43.6591 29.6932 43.6591 30.6364C43.6591 31.5852 43.5398 32.3949 43.3011 33.0653C43.0625 33.733 42.7173 34.2429 42.2656 34.5952C41.8139 34.9446 41.267 35.1193 40.625 35.1193ZM40.625 34.1818C41.2614 34.1818 41.7557 33.875 42.108 33.2614C42.4602 32.6477 42.6364 31.7727 42.6364 30.6364C42.6364 29.8807 42.5554 29.2372 42.3935 28.706C42.2344 28.1747 42.0043 27.7699 41.7031 27.4915C41.4048 27.2131 41.0455 27.0739 40.625 27.0739C39.9943 27.0739 39.5014 27.3849 39.1463 28.0071C38.7912 28.6264 38.6136 29.5028 38.6136 30.6364C38.6136 31.392 38.6932 32.0341 38.8523 32.5625C39.0114 33.0909 39.2401 33.4929 39.5384 33.7685C39.8395 34.044 40.2017 34.1818 40.625 34.1818ZM48.125 35.1193C47.483 35.1193 46.9361 34.9446 46.4844 34.5952C46.0327 34.2429 45.6875 33.733 45.4489 33.0653C45.2102 32.3949 45.0909 31.5852 45.0909 30.6364C45.0909 29.6932 45.2102 28.8878 45.4489 28.2202C45.6903 27.5497 46.0369 27.0384 46.4886 26.6861C46.9432 26.331 47.4886 26.1534 48.125 26.1534C48.7614 26.1534 49.3054 26.331 49.7571 26.6861C50.2116 27.0384 50.5582 27.5497 50.7969 28.2202C51.0384 28.8878 51.1591 29.6932 51.1591 30.6364C51.1591 31.5852 51.0398 32.3949 50.8011 33.0653C50.5625 33.733 50.2173 34.2429 49.7656 34.5952C49.3139 34.9446 48.767 35.1193 48.125 35.1193ZM48.125 34.1818C48.7614 34.1818 49.2557 33.875 49.608 33.2614C49.9602 32.6477 50.1364 31.7727 50.1364 30.6364C50.1364 29.8807 50.0554 29.2372 49.8935 28.706C49.7344 28.1747 49.5043 27.7699 49.2031 27.4915C48.9048 27.2131 48.5455 27.0739 48.125 27.0739C47.4943 27.0739 47.0014 27.3849 46.6463 28.0071C46.2912 28.6264 46.1136 29.5028 46.1136 30.6364C46.1136 31.392 46.1932 32.0341 46.3523 32.5625C46.5114 33.0909 46.7401 33.4929 47.0384 33.7685C47.3395 34.044 47.7017 34.1818 48.125 34.1818ZM56.3068 35V26.2727H57.3636V34.0625H61.4205V35H56.3068Z" fill="#344054"/>
<line x1="70.5" y1="31" x2="809.5" y2="31" stroke="#F2F4F7" stroke-linecap="round"/>
<path d="M40.6793 82.4193C40.0941 82.4193 39.5771 82.3156 39.1282 82.1082C38.6822 81.898 38.3342 81.6097 38.0842 81.2432C37.8342 80.8739 37.7106 80.4534 37.7134 79.9818C37.7106 79.6125 37.783 79.2716 37.9308 78.9591C38.0785 78.6438 38.2802 78.381 38.5359 78.1707C38.7944 77.9577 39.0827 77.8227 39.4009 77.7659V77.7148C38.9833 77.6068 38.6509 77.3724 38.4038 77.0117C38.1566 76.648 38.0344 76.2347 38.0373 75.7716C38.0344 75.3284 38.1467 74.9321 38.3739 74.5827C38.6012 74.2332 38.9137 73.9577 39.3114 73.756C39.712 73.5543 40.168 73.4534 40.6793 73.4534C41.185 73.4534 41.6367 73.5543 42.0344 73.756C42.4322 73.9577 42.7447 74.2332 42.9719 74.5827C43.2021 74.9321 43.3185 75.3284 43.3214 75.7716C43.3185 76.2347 43.1921 76.648 42.9421 77.0117C42.695 77.3724 42.3668 77.6068 41.9577 77.7148V77.7659C42.2731 77.8227 42.5572 77.9577 42.81 78.1707C43.0629 78.381 43.2646 78.6438 43.4151 78.9591C43.5657 79.2716 43.6424 79.6125 43.6452 79.9818C43.6424 80.4534 43.5146 80.8739 43.2617 81.2432C43.0117 81.6097 42.6637 81.898 42.2177 82.1082C41.7745 82.3156 41.2617 82.4193 40.6793 82.4193ZM40.6793 81.4818C41.0742 81.4818 41.4151 81.4179 41.7021 81.2901C41.989 81.1622 42.2106 80.9818 42.3668 80.7489C42.5231 80.5159 42.6026 80.2432 42.6055 79.9307C42.6026 79.6011 42.5174 79.3099 42.3498 79.0571C42.1822 78.8043 41.9535 78.6054 41.6637 78.4605C41.3768 78.3156 41.0487 78.2432 40.6793 78.2432C40.3072 78.2432 39.9748 78.3156 39.6822 78.4605C39.3924 78.6054 39.1637 78.8043 38.9961 79.0571C38.8313 79.3099 38.7504 79.6011 38.7532 79.9307C38.7504 80.2432 38.8256 80.5159 38.979 80.7489C39.1353 80.9818 39.3583 81.1622 39.6481 81.2901C39.9379 81.4179 40.2816 81.4818 40.6793 81.4818ZM40.6793 77.3398C40.9918 77.3398 41.2688 77.2773 41.5103 77.1523C41.7546 77.0273 41.9464 76.8526 42.0856 76.6281C42.2248 76.4037 42.2958 76.1409 42.2987 75.8398C42.2958 75.5443 42.2262 75.2872 42.0898 75.0685C41.9535 74.8469 41.7646 74.6764 41.5231 74.5571C41.2816 74.4349 41.0004 74.3739 40.6793 74.3739C40.3526 74.3739 40.0671 74.4349 39.8228 74.5571C39.5785 74.6764 39.3896 74.8469 39.256 75.0685C39.1225 75.2872 39.0572 75.5443 39.06 75.8398C39.0572 76.1409 39.1239 76.4037 39.2603 76.6281C39.3995 76.8526 39.5913 77.0273 39.8356 77.1523C40.0799 77.2773 40.3612 77.3398 40.6793 77.3398ZM48.125 82.4193C47.483 82.4193 46.9361 82.2446 46.4844 81.8952C46.0327 81.5429 45.6875 81.033 45.4489 80.3653C45.2102 79.6949 45.0909 78.8852 45.0909 77.9364C45.0909 76.9932 45.2102 76.1878 45.4489 75.5202C45.6903 74.8497 46.0369 74.3384 46.4886 73.9861C46.9432 73.631 47.4886 73.4534 48.125 73.4534C48.7614 73.4534 49.3054 73.631 49.7571 73.9861C50.2116 74.3384 50.5582 74.8497 50.7969 75.5202C51.0384 76.1878 51.1591 76.9932 51.1591 77.9364C51.1591 78.8852 51.0398 79.6949 50.8011 80.3653C50.5625 81.033 50.2173 81.5429 49.7656 81.8952C49.3139 82.2446 48.767 82.4193 48.125 82.4193ZM48.125 81.4818C48.7614 81.4818 49.2557 81.175 49.608 80.5614C49.9602 79.9477 50.1364 79.0727 50.1364 77.9364C50.1364 77.1807 50.0554 76.5372 49.8935 76.006C49.7344 75.4747 49.5043 75.0699 49.2031 74.7915C48.9048 74.5131 48.5455 74.3739 48.125 74.3739C47.4943 74.3739 47.0014 74.6849 46.6463 75.3071C46.2912 75.9264 46.1136 76.8028 46.1136 77.9364C46.1136 78.692 46.1932 79.3341 46.3523 79.8625C46.5114 80.3909 46.7401 80.7929 47.0384 81.0685C47.3395 81.344 47.7017 81.4818 48.125 81.4818ZM56.3068 82.3V73.5727H57.3636V81.3625H61.4205V82.3H56.3068Z" fill="#344054"/>
<line x1="70.5" y1="78.3" x2="809.5" y2="78.3" stroke="#F2F4F7" stroke-linecap="round"/>
<path d="M40.6879 127.219C40.3299 127.214 39.9719 127.145 39.614 127.015C39.256 126.884 38.9293 126.664 38.6339 126.354C38.3384 126.042 38.1012 125.62 37.9222 125.089C37.7433 124.555 37.6538 123.884 37.6538 123.077C37.6538 122.305 37.7262 121.62 37.8711 121.023C38.016 120.424 38.2262 119.92 38.5018 119.511C38.7773 119.099 39.1097 118.786 39.4989 118.573C39.891 118.36 40.3327 118.253 40.8242 118.253C41.3129 118.253 41.7475 118.351 42.1282 118.547C42.5117 118.741 42.8242 119.011 43.0657 119.357C43.3072 119.704 43.4634 120.103 43.5344 120.555H42.4947C42.3981 120.162 42.2106 119.837 41.9322 119.579C41.6538 119.32 41.2844 119.191 40.8242 119.191C40.1481 119.191 39.6154 119.485 39.2262 120.073C38.8398 120.661 38.6452 121.486 38.6424 122.549H38.7106C38.8697 122.307 39.0586 122.101 39.2773 121.931C39.4989 121.758 39.7433 121.624 40.0103 121.53C40.2773 121.437 40.56 121.39 40.8583 121.39C41.3583 121.39 41.8157 121.515 42.2305 121.765C42.6452 122.012 42.9776 122.354 43.2276 122.792C43.4776 123.226 43.6026 123.725 43.6026 124.287C43.6026 124.827 43.4819 125.322 43.2404 125.77C42.9989 126.216 42.6594 126.572 42.2219 126.836C41.7873 127.097 41.2759 127.225 40.6879 127.219ZM40.6879 126.282C41.0458 126.282 41.3668 126.192 41.6509 126.013C41.9379 125.834 42.1637 125.594 42.3285 125.293C42.4961 124.992 42.5799 124.657 42.5799 124.287C42.5799 123.927 42.4989 123.599 42.337 123.303C42.1779 123.005 41.9577 122.768 41.6765 122.591C41.3981 122.415 41.0799 122.327 40.7219 122.327C40.4521 122.327 40.2006 122.381 39.9677 122.489C39.7347 122.594 39.5302 122.739 39.354 122.924C39.1808 123.109 39.0444 123.32 38.945 123.559C38.8455 123.795 38.7958 124.043 38.7958 124.305C38.7958 124.651 38.8768 124.975 39.0387 125.276C39.2035 125.577 39.4279 125.82 39.712 126.005C39.9989 126.189 40.3242 126.282 40.6879 126.282ZM48.125 127.219C47.483 127.219 46.9361 127.045 46.4844 126.695C46.0327 126.343 45.6875 125.833 45.4489 125.165C45.2102 124.495 45.0909 123.685 45.0909 122.736C45.0909 121.793 45.2102 120.988 45.4489 120.32C45.6903 119.65 46.0369 119.138 46.4886 118.786C46.9432 118.431 47.4886 118.253 48.125 118.253C48.7614 118.253 49.3054 118.431 49.7571 118.786C50.2116 119.138 50.5582 119.65 50.7969 120.32C51.0384 120.988 51.1591 121.793 51.1591 122.736C51.1591 123.685 51.0398 124.495 50.8011 125.165C50.5625 125.833 50.2173 126.343 49.7656 126.695C49.3139 127.045 48.767 127.219 48.125 127.219ZM48.125 126.282C48.7614 126.282 49.2557 125.975 49.608 125.361C49.9602 124.748 50.1364 123.873 50.1364 122.736C50.1364 121.981 50.0554 121.337 49.8935 120.806C49.7344 120.275 49.5043 119.87 49.2031 119.591C48.9048 119.313 48.5455 119.174 48.125 119.174C47.4943 119.174 47.0014 119.485 46.6463 120.107C46.2912 120.726 46.1136 121.603 46.1136 122.736C46.1136 123.492 46.1932 124.134 46.3523 124.662C46.5114 125.191 46.7401 125.593 47.0384 125.868C47.3395 126.144 47.7017 126.282 48.125 126.282ZM56.3068 127.1V118.373H57.3636V126.162H61.4205V127.1H56.3068Z" fill="#344054"/>
<line x1="70.5" y1="123.1" x2="809.5" y2="123.1" stroke="#F2F4F7" stroke-linecap="round"/>
<path d="M37.3746 170.11V169.241L41.2099 163.173H41.8406V164.519H41.4144L38.5167 169.105V169.173H43.6815V170.11H37.3746ZM41.4826 171.9V169.846V169.441V163.173H42.4883V171.9H41.4826ZM48.125 172.019C47.483 172.019 46.9361 171.845 46.4844 171.495C46.0327 171.143 45.6875 170.633 45.4489 169.965C45.2102 169.295 45.0909 168.485 45.0909 167.536C45.0909 166.593 45.2102 165.788 45.4489 165.12C45.6903 164.45 46.0369 163.938 46.4886 163.586C46.9432 163.231 47.4886 163.053 48.125 163.053C48.7614 163.053 49.3054 163.231 49.7571 163.586C50.2116 163.938 50.5582 164.45 50.7969 165.12C51.0384 165.788 51.1591 166.593 51.1591 167.536C51.1591 168.485 51.0398 169.295 50.8011 169.965C50.5625 170.633 50.2173 171.143 49.7656 171.495C49.3139 171.845 48.767 172.019 48.125 172.019ZM48.125 171.082C48.7614 171.082 49.2557 170.775 49.608 170.161C49.9602 169.548 50.1364 168.673 50.1364 167.536C50.1364 166.781 50.0554 166.137 49.8935 165.606C49.7344 165.075 49.5043 164.67 49.2031 164.391C48.9048 164.113 48.5455 163.974 48.125 163.974C47.4943 163.974 47.0014 164.285 46.6463 164.907C46.2912 165.526 46.1136 166.403 46.1136 167.536C46.1136 168.292 46.1932 168.934 46.3523 169.462C46.5114 169.991 46.7401 170.393 47.0384 170.668C47.3395 170.944 47.7017 171.082 48.125 171.082ZM56.3068 171.9V163.173H57.3636V170.962H61.4205V171.9H56.3068Z" fill="#344054"/>
<line x1="70.5" y1="167.9" x2="809.5" y2="167.9" stroke="#F2F4F7" stroke-linecap="round"/>
<path d="M38.0128 216.7V215.933L40.8935 212.78C41.2315 212.41 41.5099 212.089 41.7287 211.816C41.9474 211.541 42.1094 211.282 42.2145 211.041C42.3224 210.797 42.3764 210.541 42.3764 210.274C42.3764 209.967 42.3026 209.701 42.1548 209.477C42.0099 209.253 41.8111 209.079 41.5582 208.957C41.3054 208.835 41.0213 208.774 40.706 208.774C40.3707 208.774 40.0781 208.843 39.8281 208.983C39.581 209.119 39.3892 209.311 39.2528 209.558C39.1193 209.805 39.0526 210.095 39.0526 210.427H38.0469C38.0469 209.916 38.1648 209.467 38.4006 209.081C38.6364 208.694 38.9574 208.393 39.3636 208.177C39.7727 207.961 40.2315 207.853 40.7401 207.853C41.2514 207.853 41.7045 207.961 42.0994 208.177C42.4943 208.393 42.804 208.684 43.0284 209.051C43.2528 209.417 43.3651 209.825 43.3651 210.274C43.3651 210.595 43.3068 210.909 43.1903 211.216C43.0767 211.52 42.8778 211.859 42.5938 212.234C42.3125 212.606 41.9219 213.061 41.4219 213.598L39.4616 215.694V215.762H43.5185V216.7H38.0128ZM48.125 216.819C47.483 216.819 46.9361 216.645 46.4844 216.295C46.0327 215.943 45.6875 215.433 45.4489 214.765C45.2102 214.095 45.0909 213.285 45.0909 212.336C45.0909 211.393 45.2102 210.588 45.4489 209.92C45.6903 209.25 46.0369 208.738 46.4886 208.386C46.9432 208.031 47.4886 207.853 48.125 207.853C48.7614 207.853 49.3054 208.031 49.7571 208.386C50.2116 208.738 50.5582 209.25 50.7969 209.92C51.0384 210.588 51.1591 211.393 51.1591 212.336C51.1591 213.285 51.0398 214.095 50.8011 214.765C50.5625 215.433 50.2173 215.943 49.7656 216.295C49.3139 216.645 48.767 216.819 48.125 216.819ZM48.125 215.882C48.7614 215.882 49.2557 215.575 49.608 214.961C49.9602 214.348 50.1364 213.473 50.1364 212.336C50.1364 211.581 50.0554 210.937 49.8935 210.406C49.7344 209.875 49.5043 209.47 49.2031 209.191C48.9048 208.913 48.5455 208.774 48.125 208.774C47.4943 208.774 47.0014 209.085 46.6463 209.707C46.2912 210.326 46.1136 211.203 46.1136 212.336C46.1136 213.092 46.1932 213.734 46.3523 214.262C46.5114 214.791 46.7401 215.193 47.0384 215.468C47.3395 215.744 47.7017 215.882 48.125 215.882ZM56.3068 216.7V207.973H57.3636V215.762H61.4205V216.7H56.3068Z" fill="#344054"/>
<line x1="70.5" y1="212.7" x2="809.5" y2="212.7" stroke="#F2F4F7" stroke-linecap="round"/>
<path d="M58.25 261.619C57.608 261.619 57.0611 261.445 56.6094 261.095C56.1577 260.743 55.8125 260.233 55.5739 259.565C55.3352 258.895 55.2159 258.085 55.2159 257.136C55.2159 256.193 55.3352 255.388 55.5739 254.72C55.8153 254.05 56.1619 253.538 56.6136 253.186C57.0682 252.831 57.6136 252.653 58.25 252.653C58.8864 252.653 59.4304 252.831 59.8821 253.186C60.3366 253.538 60.6832 254.05 60.9219 254.72C61.1634 255.388 61.2841 256.193 61.2841 257.136C61.2841 258.085 61.1648 258.895 60.9261 259.565C60.6875 260.233 60.3423 260.743 59.8906 261.095C59.4389 261.445 58.892 261.619 58.25 261.619ZM58.25 260.682C58.8864 260.682 59.3807 260.375 59.733 259.761C60.0852 259.148 60.2614 258.273 60.2614 257.136C60.2614 256.381 60.1804 255.737 60.0185 255.206C59.8594 254.675 59.6293 254.27 59.3281 253.991C59.0298 253.713 58.6705 253.574 58.25 253.574C57.6193 253.574 57.1264 253.885 56.7713 254.507C56.4162 255.126 56.2386 256.003 56.2386 257.136C56.2386 257.892 56.3182 258.534 56.4773 259.062C56.6364 259.591 56.8651 259.993 57.1634 260.268C57.4645 260.544 57.8267 260.682 58.25 260.682Z" fill="#344054"/>
<line x1="70.5" y1="257.5" x2="809.5" y2="257.5" stroke="#F2F4F7" stroke-linecap="round"/>
<path d="M90.7493 270.273H91.8061V276.511C91.8061 277.068 91.7038 277.541 91.4993 277.93C91.2947 278.32 91.0064 278.615 90.6342 278.817C90.2621 279.018 89.8232 279.119 89.3175 279.119C88.8402 279.119 88.4155 279.033 88.0433 278.859C87.6712 278.683 87.3786 278.433 87.1655 278.109C86.9524 277.786 86.8459 277.401 86.8459 276.955H87.8857C87.8857 277.202 87.9467 277.418 88.0689 277.602C88.1939 277.784 88.3643 277.926 88.5803 278.028C88.7962 278.131 89.0419 278.182 89.3175 278.182C89.6214 278.182 89.88 278.118 90.093 277.99C90.3061 277.862 90.468 277.675 90.5788 277.428C90.6925 277.178 90.7493 276.872 90.7493 276.511V270.273ZM95.7138 279.153C95.299 279.153 94.9226 279.075 94.5845 278.919C94.2464 278.76 93.978 278.531 93.7791 278.233C93.5803 277.932 93.4808 277.568 93.4808 277.142C93.4808 276.767 93.5547 276.463 93.7024 276.23C93.8501 275.994 94.0476 275.81 94.2947 275.676C94.5419 275.543 94.8146 275.443 95.1129 275.378C95.4141 275.31 95.7166 275.256 96.0206 275.216C96.4183 275.165 96.7408 275.126 96.9879 275.101C97.2379 275.072 97.4197 275.026 97.5334 274.96C97.6499 274.895 97.7081 274.781 97.7081 274.619V274.585C97.7081 274.165 97.593 273.838 97.3629 273.605C97.1357 273.372 96.7905 273.256 96.3274 273.256C95.8473 273.256 95.4709 273.361 95.1982 273.571C94.9254 273.781 94.7337 274.006 94.6229 274.244L93.6683 273.903C93.8388 273.506 94.0661 273.196 94.3501 272.974C94.6371 272.75 94.9496 272.594 95.2876 272.506C95.6286 272.415 95.9638 272.369 96.2933 272.369C96.5036 272.369 96.745 272.395 97.0178 272.446C97.2933 272.494 97.5589 272.595 97.8146 272.749C98.0732 272.902 98.2876 273.134 98.4581 273.443C98.6286 273.753 98.7138 274.168 98.7138 274.688V279H97.7081V278.114H97.657C97.5888 278.256 97.4751 278.408 97.3161 278.57C97.157 278.732 96.9453 278.869 96.6811 278.983C96.4169 279.097 96.0945 279.153 95.7138 279.153ZM95.8672 278.25C96.2649 278.25 96.6001 278.172 96.8729 278.016C97.1484 277.859 97.3558 277.658 97.495 277.411C97.6371 277.163 97.7081 276.903 97.7081 276.631V275.71C97.6655 275.761 97.5717 275.808 97.4268 275.851C97.2848 275.891 97.12 275.926 96.9325 275.957C96.7479 275.986 96.5675 276.011 96.3913 276.034C96.218 276.054 96.0774 276.071 95.9695 276.085C95.7081 276.119 95.4638 276.175 95.2365 276.251C95.0121 276.325 94.8303 276.437 94.6911 276.588C94.5547 276.736 94.4865 276.937 94.4865 277.193C94.4865 277.543 94.6158 277.807 94.8743 277.986C95.1357 278.162 95.4666 278.25 95.8672 278.25ZM101.555 275.062V279H100.549V272.455H101.521V273.477H101.606C101.76 273.145 101.993 272.878 102.305 272.676C102.618 272.472 103.021 272.369 103.515 272.369C103.958 272.369 104.346 272.46 104.679 272.642C105.011 272.821 105.27 273.094 105.454 273.46C105.639 273.824 105.731 274.284 105.731 274.841V279H104.725V274.909C104.725 274.395 104.592 273.994 104.325 273.707C104.058 273.418 103.691 273.273 103.225 273.273C102.904 273.273 102.618 273.342 102.365 273.482C102.115 273.621 101.917 273.824 101.772 274.091C101.627 274.358 101.555 274.682 101.555 275.062Z" fill="#475467"/>
<path d="M148.239 279V270.273H153.472V271.21H149.295V274.159H153.08V275.097H149.295V279H148.239ZM157.409 279.136C156.778 279.136 156.234 278.997 155.777 278.719C155.322 278.438 154.972 278.045 154.724 277.543C154.48 277.037 154.358 276.449 154.358 275.778C154.358 275.108 154.48 274.517 154.724 274.006C154.972 273.491 155.315 273.091 155.756 272.804C156.199 272.514 156.716 272.369 157.307 272.369C157.648 272.369 157.984 272.426 158.317 272.54C158.649 272.653 158.952 272.838 159.224 273.094C159.497 273.347 159.714 273.682 159.876 274.099C160.038 274.517 160.119 275.031 160.119 275.642V276.068H155.074V275.199H159.097C159.097 274.83 159.023 274.5 158.875 274.21C158.73 273.92 158.523 273.692 158.253 273.524C157.986 273.357 157.67 273.273 157.307 273.273C156.906 273.273 156.56 273.372 156.267 273.571C155.977 273.767 155.754 274.023 155.598 274.338C155.442 274.653 155.364 274.991 155.364 275.352V275.932C155.364 276.426 155.449 276.845 155.619 277.189C155.793 277.53 156.033 277.79 156.339 277.969C156.646 278.145 157.003 278.233 157.409 278.233C157.673 278.233 157.912 278.196 158.125 278.122C158.341 278.045 158.527 277.932 158.683 277.781C158.839 277.628 158.96 277.437 159.045 277.21L160.017 277.483C159.915 277.812 159.743 278.102 159.501 278.352C159.26 278.599 158.962 278.793 158.607 278.932C158.251 279.068 157.852 279.136 157.409 279.136ZM161.786 279V270.273H162.791V273.494H162.876C162.95 273.381 163.053 273.236 163.183 273.06C163.317 272.881 163.507 272.722 163.754 272.582C164.004 272.44 164.342 272.369 164.768 272.369C165.32 272.369 165.805 272.507 166.226 272.783C166.646 273.058 166.974 273.449 167.21 273.955C167.446 274.46 167.564 275.057 167.564 275.744C167.564 276.438 167.446 277.038 167.21 277.547C166.974 278.053 166.648 278.445 166.23 278.723C165.813 278.999 165.331 279.136 164.786 279.136C164.365 279.136 164.028 279.067 163.776 278.928C163.523 278.786 163.328 278.625 163.192 278.446C163.055 278.264 162.95 278.114 162.876 277.994H162.757V279H161.786ZM162.774 275.727C162.774 276.222 162.847 276.658 162.991 277.036C163.136 277.411 163.348 277.705 163.626 277.918C163.905 278.128 164.246 278.233 164.649 278.233C165.07 278.233 165.42 278.122 165.702 277.901C165.986 277.676 166.199 277.375 166.341 276.997C166.486 276.616 166.558 276.193 166.558 275.727C166.558 275.267 166.487 274.852 166.345 274.483C166.206 274.111 165.994 273.817 165.71 273.601C165.429 273.382 165.075 273.273 164.649 273.273C164.24 273.273 163.896 273.376 163.618 273.584C163.339 273.788 163.129 274.075 162.987 274.445C162.845 274.811 162.774 275.239 162.774 275.727Z" fill="#475467"/>
<path d="M209.469 270.273H210.731L213.697 277.517H213.799L216.765 270.273H218.026V279H217.037V272.369H216.952L214.225 279H213.27L210.543 272.369H210.458V279H209.469V270.273ZM221.935 279.153C221.52 279.153 221.144 279.075 220.806 278.919C220.468 278.76 220.199 278.531 220 278.233C219.801 277.932 219.702 277.568 219.702 277.142C219.702 276.767 219.776 276.463 219.923 276.23C220.071 275.994 220.269 275.81 220.516 275.676C220.763 275.543 221.036 275.443 221.334 275.378C221.635 275.31 221.938 275.256 222.242 275.216C222.639 275.165 222.962 275.126 223.209 275.101C223.459 275.072 223.641 275.026 223.754 274.96C223.871 274.895 223.929 274.781 223.929 274.619V274.585C223.929 274.165 223.814 273.838 223.584 273.605C223.357 273.372 223.012 273.256 222.548 273.256C222.068 273.256 221.692 273.361 221.419 273.571C221.146 273.781 220.955 274.006 220.844 274.244L219.889 273.903C220.06 273.506 220.287 273.196 220.571 272.974C220.858 272.75 221.171 272.594 221.509 272.506C221.85 272.415 222.185 272.369 222.514 272.369C222.725 272.369 222.966 272.395 223.239 272.446C223.514 272.494 223.78 272.595 224.036 272.749C224.294 272.902 224.509 273.134 224.679 273.443C224.85 273.753 224.935 274.168 224.935 274.688V279H223.929V278.114H223.878C223.81 278.256 223.696 278.408 223.537 278.57C223.378 278.732 223.166 278.869 222.902 278.983C222.638 279.097 222.316 279.153 221.935 279.153ZM222.088 278.25C222.486 278.25 222.821 278.172 223.094 278.016C223.37 277.859 223.577 277.658 223.716 277.411C223.858 277.163 223.929 276.903 223.929 276.631V275.71C223.887 275.761 223.793 275.808 223.648 275.851C223.506 275.891 223.341 275.926 223.154 275.957C222.969 275.986 222.789 276.011 222.612 276.034C222.439 276.054 222.298 276.071 222.191 276.085C221.929 276.119 221.685 276.175 221.458 276.251C221.233 276.325 221.051 276.437 220.912 276.588C220.776 276.736 220.708 276.937 220.708 277.193C220.708 277.543 220.837 277.807 221.095 277.986C221.357 278.162 221.688 278.25 222.088 278.25ZM226.77 279V272.455H227.742V273.443H227.81C227.93 273.119 228.145 272.857 228.458 272.655C228.77 272.453 229.123 272.352 229.515 272.352C229.589 272.352 229.681 272.354 229.792 272.357C229.903 272.359 229.986 272.364 230.043 272.369V273.392C230.009 273.384 229.931 273.371 229.809 273.354C229.689 273.334 229.563 273.324 229.43 273.324C229.111 273.324 228.827 273.391 228.577 273.524C228.33 273.655 228.134 273.837 227.989 274.07C227.847 274.3 227.776 274.562 227.776 274.858V279H226.77Z" fill="#475467"/>
<path d="M272.017 279H270.909L274.113 270.273H275.204L278.409 279H277.301L274.693 271.653H274.625L272.017 279ZM272.426 275.591H276.892V276.528H272.426V275.591ZM279.632 281.455V272.455H280.604V273.494H280.723C280.797 273.381 280.899 273.236 281.03 273.06C281.163 272.881 281.354 272.722 281.601 272.582C281.851 272.44 282.189 272.369 282.615 272.369C283.166 272.369 283.652 272.507 284.072 272.783C284.493 273.058 284.821 273.449 285.057 273.955C285.292 274.46 285.41 275.057 285.41 275.744C285.41 276.438 285.292 277.038 285.057 277.547C284.821 278.053 284.494 278.445 284.077 278.723C283.659 278.999 283.177 279.136 282.632 279.136C282.211 279.136 281.875 279.067 281.622 278.928C281.369 278.786 281.175 278.625 281.038 278.446C280.902 278.264 280.797 278.114 280.723 277.994H280.638V281.455H279.632ZM280.621 275.727C280.621 276.222 280.693 276.658 280.838 277.036C280.983 277.411 281.194 277.705 281.473 277.918C281.751 278.128 282.092 278.233 282.496 278.233C282.916 278.233 283.267 278.122 283.548 277.901C283.832 277.676 284.045 277.375 284.187 276.997C284.332 276.616 284.405 276.193 284.405 275.727C284.405 275.267 284.334 274.852 284.192 274.483C284.052 274.111 283.841 273.817 283.557 273.601C283.275 273.382 282.922 273.273 282.496 273.273C282.086 273.273 281.743 273.376 281.464 273.584C281.186 273.788 280.976 274.075 280.834 274.445C280.692 274.811 280.621 275.239 280.621 275.727ZM286.944 279V272.455H287.916V273.443H287.984C288.104 273.119 288.319 272.857 288.632 272.655C288.944 272.453 289.297 272.352 289.689 272.352C289.763 272.352 289.855 272.354 289.966 272.357C290.077 272.359 290.16 272.364 290.217 272.369V273.392C290.183 273.384 290.105 273.371 289.983 273.354C289.863 273.334 289.737 273.324 289.604 273.324C289.285 273.324 289.001 273.391 288.751 273.524C288.504 273.655 288.308 273.837 288.163 274.07C288.021 274.3 287.95 274.562 287.95 274.858V279H286.944Z" fill="#475467"/>
<path d="M331.843 270.273H333.104L336.07 277.517H336.172L339.138 270.273H340.4V279H339.411V272.369H339.326L336.598 279H335.644L332.917 272.369H332.831V279H331.843V270.273ZM344.308 279.153C343.893 279.153 343.517 279.075 343.179 278.919C342.841 278.76 342.572 278.531 342.374 278.233C342.175 277.932 342.075 277.568 342.075 277.142C342.075 276.767 342.149 276.463 342.297 276.23C342.445 275.994 342.642 275.81 342.889 275.676C343.136 275.543 343.409 275.443 343.707 275.378C344.009 275.31 344.311 275.256 344.615 275.216C345.013 275.165 345.335 275.126 345.582 275.101C345.832 275.072 346.014 275.026 346.128 274.96C346.244 274.895 346.303 274.781 346.303 274.619V274.585C346.303 274.165 346.188 273.838 345.957 273.605C345.73 273.372 345.385 273.256 344.922 273.256C344.442 273.256 344.065 273.361 343.793 273.571C343.52 273.781 343.328 274.006 343.217 274.244L342.263 273.903C342.433 273.506 342.661 273.196 342.945 272.974C343.232 272.75 343.544 272.594 343.882 272.506C344.223 272.415 344.558 272.369 344.888 272.369C345.098 272.369 345.34 272.395 345.612 272.446C345.888 272.494 346.153 272.595 346.409 272.749C346.668 272.902 346.882 273.134 347.053 273.443C347.223 273.753 347.308 274.168 347.308 274.688V279H346.303V278.114H346.251C346.183 278.256 346.07 278.408 345.911 278.57C345.751 278.732 345.54 278.869 345.276 278.983C345.011 279.097 344.689 279.153 344.308 279.153ZM344.462 278.25C344.859 278.25 345.195 278.172 345.467 278.016C345.743 277.859 345.95 277.658 346.09 277.411C346.232 277.163 346.303 276.903 346.303 276.631V275.71C346.26 275.761 346.166 275.808 346.021 275.851C345.879 275.891 345.715 275.926 345.527 275.957C345.342 275.986 345.162 276.011 344.986 276.034C344.813 276.054 344.672 276.071 344.564 276.085C344.303 276.119 344.058 276.175 343.831 276.251C343.607 276.325 343.425 276.437 343.286 276.588C343.149 276.736 343.081 276.937 343.081 277.193C343.081 277.543 343.21 277.807 343.469 277.986C343.73 278.162 344.061 278.25 344.462 278.25ZM349.557 281.455C349.387 281.455 349.235 281.44 349.101 281.412C348.968 281.386 348.875 281.361 348.824 281.335L349.08 280.449C349.324 280.511 349.54 280.534 349.728 280.517C349.915 280.5 350.081 280.416 350.226 280.266C350.374 280.118 350.509 279.878 350.631 279.545L350.819 279.034L348.398 272.455H349.489L351.296 277.67H351.364L353.171 272.455H354.262L351.483 279.955C351.358 280.293 351.204 280.572 351.019 280.794C350.834 281.018 350.62 281.185 350.375 281.293C350.134 281.401 349.861 281.455 349.557 281.455Z" fill="#475467"/>
<path d="M399.553 270.273H400.61V276.511C400.61 277.068 400.507 277.541 400.303 277.93C400.098 278.32 399.81 278.615 399.438 278.817C399.066 279.018 398.627 279.119 398.121 279.119C397.644 279.119 397.219 279.033 396.847 278.859C396.475 278.683 396.182 278.433 395.969 278.109C395.756 277.786 395.65 277.401 395.65 276.955H396.689C396.689 277.202 396.75 277.418 396.873 277.602C396.998 277.784 397.168 277.926 397.384 278.028C397.6 278.131 397.846 278.182 398.121 278.182C398.425 278.182 398.684 278.118 398.897 277.99C399.11 277.862 399.272 277.675 399.382 277.428C399.496 277.178 399.553 276.872 399.553 276.511V270.273ZM406.716 276.324V272.455H407.722V279H406.716V277.892H406.648C406.495 278.224 406.256 278.507 405.932 278.74C405.608 278.97 405.199 279.085 404.705 279.085C404.296 279.085 403.932 278.996 403.614 278.817C403.296 278.635 403.046 278.362 402.864 277.999C402.682 277.632 402.591 277.17 402.591 276.614V272.455H403.597V276.545C403.597 277.023 403.73 277.403 403.998 277.688C404.267 277.972 404.611 278.114 405.029 278.114C405.279 278.114 405.533 278.05 405.792 277.922C406.053 277.794 406.272 277.598 406.448 277.334C406.627 277.07 406.716 276.733 406.716 276.324ZM410.57 275.062V279H409.564V272.455H410.536V273.477H410.621C410.774 273.145 411.007 272.878 411.32 272.676C411.632 272.472 412.036 272.369 412.53 272.369C412.973 272.369 413.361 272.46 413.693 272.642C414.026 272.821 414.284 273.094 414.469 273.46C414.653 273.824 414.746 274.284 414.746 274.841V279H413.74V274.909C413.74 274.395 413.607 273.994 413.34 273.707C413.072 273.418 412.706 273.273 412.24 273.273C411.919 273.273 411.632 273.342 411.379 273.482C411.129 273.621 410.932 273.824 410.787 274.091C410.642 274.358 410.57 274.682 410.57 275.062Z" fill="#475467"/>
<path d="M460.821 270.273H461.878V276.511C461.878 277.068 461.775 277.541 461.571 277.93C461.366 278.32 461.078 278.615 460.706 278.817C460.333 279.018 459.895 279.119 459.389 279.119C458.912 279.119 458.487 279.033 458.115 278.859C457.743 278.683 457.45 278.433 457.237 278.109C457.024 277.786 456.917 277.401 456.917 276.955H457.957C457.957 277.202 458.018 277.418 458.14 277.602C458.265 277.784 458.436 277.926 458.652 278.028C458.868 278.131 459.113 278.182 459.389 278.182C459.693 278.182 459.951 278.118 460.164 277.99C460.378 277.862 460.539 277.675 460.65 277.428C460.764 277.178 460.821 276.872 460.821 276.511V270.273ZM467.984 276.324V272.455H468.99V279H467.984V277.892H467.916C467.762 278.224 467.524 278.507 467.2 278.74C466.876 278.97 466.467 279.085 465.973 279.085C465.564 279.085 465.2 278.996 464.882 278.817C464.564 278.635 464.314 278.362 464.132 277.999C463.95 277.632 463.859 277.17 463.859 276.614V272.455H464.865V276.545C464.865 277.023 464.998 277.403 465.265 277.688C465.535 277.972 465.879 278.114 466.297 278.114C466.547 278.114 466.801 278.05 467.059 277.922C467.321 277.794 467.539 277.598 467.716 277.334C467.895 277.07 467.984 276.733 467.984 276.324ZM471.837 270.273V279H470.832V270.273H471.837Z" fill="#475467"/>
<path d="M514.99 279H513.882L517.087 270.273H518.178L521.382 279H520.274L517.666 271.653H517.598L514.99 279ZM515.399 275.591H519.865V276.528H515.399V275.591ZM526.73 276.324V272.455H527.736V279H526.73V277.892H526.662C526.509 278.224 526.27 278.507 525.946 278.74C525.622 278.97 525.213 279.085 524.719 279.085C524.31 279.085 523.946 278.996 523.628 278.817C523.31 278.635 523.06 278.362 522.878 277.999C522.696 277.632 522.605 277.17 522.605 276.614V272.455H523.611V276.545C523.611 277.023 523.745 277.403 524.012 277.688C524.281 277.972 524.625 278.114 525.043 278.114C525.293 278.114 525.547 278.05 525.806 277.922C526.067 277.794 526.286 277.598 526.462 277.334C526.641 277.07 526.73 276.733 526.73 276.324ZM532.22 281.591C531.734 281.591 531.317 281.528 530.967 281.403C530.618 281.281 530.327 281.119 530.094 280.918C529.863 280.719 529.68 280.506 529.544 280.278L530.345 279.716C530.436 279.835 530.551 279.972 530.69 280.125C530.829 280.281 531.02 280.416 531.261 280.53C531.506 280.646 531.825 280.705 532.22 280.705C532.748 280.705 533.185 280.577 533.528 280.321C533.872 280.065 534.044 279.665 534.044 279.119V277.79H533.959C533.885 277.909 533.78 278.057 533.643 278.233C533.51 278.406 533.317 278.561 533.064 278.697C532.814 278.831 532.476 278.898 532.05 278.898C531.521 278.898 531.047 278.773 530.626 278.523C530.209 278.273 529.878 277.909 529.633 277.432C529.392 276.955 529.271 276.375 529.271 275.693C529.271 275.023 529.389 274.439 529.625 273.942C529.861 273.442 530.189 273.055 530.609 272.783C531.03 272.507 531.515 272.369 532.067 272.369C532.493 272.369 532.831 272.44 533.081 272.582C533.334 272.722 533.527 272.881 533.66 273.06C533.797 273.236 533.902 273.381 533.976 273.494H534.078V272.455H535.05V279.188C535.05 279.75 534.922 280.207 534.666 280.56C534.413 280.915 534.072 281.175 533.643 281.339C533.217 281.507 532.743 281.591 532.22 281.591ZM532.186 277.994C532.589 277.994 532.93 277.902 533.209 277.717C533.487 277.533 533.699 277.267 533.844 276.92C533.988 276.574 534.061 276.159 534.061 275.676C534.061 275.205 533.99 274.788 533.848 274.428C533.706 274.067 533.496 273.784 533.217 273.58C532.939 273.375 532.595 273.273 532.186 273.273C531.76 273.273 531.405 273.381 531.121 273.597C530.839 273.812 530.628 274.102 530.486 274.466C530.346 274.83 530.277 275.233 530.277 275.676C530.277 276.131 530.348 276.533 530.49 276.882C530.635 277.229 530.848 277.501 531.129 277.7C531.413 277.896 531.765 277.994 532.186 277.994Z" fill="#475467"/>
<path d="M582.31 272.455C582.258 272.023 582.051 271.688 581.687 271.449C581.324 271.21 580.878 271.091 580.349 271.091C579.963 271.091 579.625 271.153 579.335 271.278C579.048 271.403 578.824 271.575 578.662 271.794C578.503 272.013 578.423 272.261 578.423 272.54C578.423 272.773 578.479 272.973 578.589 273.141C578.703 273.305 578.848 273.443 579.024 273.554C579.2 273.662 579.385 273.751 579.578 273.822C579.771 273.891 579.949 273.946 580.111 273.989L580.997 274.227C581.224 274.287 581.477 274.369 581.756 274.474C582.037 274.58 582.305 274.723 582.561 274.905C582.819 275.084 583.033 275.314 583.2 275.595C583.368 275.876 583.452 276.222 583.452 276.631C583.452 277.102 583.328 277.528 583.081 277.909C582.837 278.29 582.479 278.592 582.007 278.817C581.538 279.041 580.969 279.153 580.298 279.153C579.673 279.153 579.132 279.053 578.675 278.851C578.22 278.649 577.862 278.368 577.601 278.007C577.342 277.646 577.196 277.227 577.162 276.75H578.253C578.281 277.08 578.392 277.352 578.585 277.568C578.781 277.781 579.028 277.94 579.327 278.045C579.628 278.148 579.952 278.199 580.298 278.199C580.702 278.199 581.064 278.134 581.385 278.003C581.706 277.869 581.96 277.685 582.148 277.449C582.335 277.21 582.429 276.932 582.429 276.614C582.429 276.324 582.348 276.088 582.186 275.906C582.024 275.724 581.811 275.577 581.547 275.463C581.283 275.349 580.997 275.25 580.69 275.165L579.616 274.858C578.935 274.662 578.395 274.382 577.997 274.018C577.599 273.655 577.4 273.179 577.4 272.591C577.4 272.102 577.533 271.676 577.797 271.312C578.064 270.946 578.422 270.662 578.871 270.46C579.322 270.256 579.827 270.153 580.383 270.153C580.946 270.153 581.446 270.254 581.883 270.456C582.321 270.655 582.667 270.928 582.923 271.274C583.182 271.621 583.318 272.014 583.332 272.455H582.31ZM587.797 279.136C587.166 279.136 586.622 278.997 586.165 278.719C585.71 278.438 585.36 278.045 585.112 277.543C584.868 277.037 584.746 276.449 584.746 275.778C584.746 275.108 584.868 274.517 585.112 274.006C585.36 273.491 585.703 273.091 586.144 272.804C586.587 272.514 587.104 272.369 587.695 272.369C588.036 272.369 588.372 272.426 588.705 272.54C589.037 272.653 589.34 272.838 589.612 273.094C589.885 273.347 590.102 273.682 590.264 274.099C590.426 274.517 590.507 275.031 590.507 275.642V276.068H585.462V275.199H589.485C589.485 274.83 589.411 274.5 589.263 274.21C589.118 273.92 588.911 273.692 588.641 273.524C588.374 273.357 588.058 273.273 587.695 273.273C587.294 273.273 586.948 273.372 586.655 273.571C586.365 273.767 586.142 274.023 585.986 274.338C585.83 274.653 585.752 274.991 585.752 275.352V275.932C585.752 276.426 585.837 276.845 586.007 277.189C586.181 277.53 586.421 277.79 586.727 277.969C587.034 278.145 587.391 278.233 587.797 278.233C588.061 278.233 588.3 278.196 588.513 278.122C588.729 278.045 588.915 277.932 589.071 277.781C589.227 277.628 589.348 277.437 589.433 277.21L590.405 277.483C590.303 277.812 590.131 278.102 589.889 278.352C589.648 278.599 589.35 278.793 588.995 278.932C588.639 279.068 588.24 279.136 587.797 279.136ZM592.037 281.455V272.455H593.009V273.494H593.128C593.202 273.381 593.304 273.236 593.435 273.06C593.568 272.881 593.759 272.722 594.006 272.582C594.256 272.44 594.594 272.369 595.02 272.369C595.571 272.369 596.057 272.507 596.477 272.783C596.898 273.058 597.226 273.449 597.462 273.955C597.698 274.46 597.816 275.057 597.816 275.744C597.816 276.438 597.698 277.038 597.462 277.547C597.226 278.053 596.899 278.445 596.482 278.723C596.064 278.999 595.583 279.136 595.037 279.136C594.617 279.136 594.28 279.067 594.027 278.928C593.774 278.786 593.58 278.625 593.443 278.446C593.307 278.264 593.202 278.114 593.128 277.994H593.043V281.455H592.037ZM593.026 275.727C593.026 276.222 593.098 276.658 593.243 277.036C593.388 277.411 593.6 277.705 593.878 277.918C594.156 278.128 594.497 278.233 594.901 278.233C595.321 278.233 595.672 278.122 595.953 277.901C596.237 277.676 596.451 277.375 596.593 276.997C596.737 276.616 596.81 276.193 596.81 275.727C596.81 275.267 596.739 274.852 596.597 274.483C596.458 274.111 596.246 273.817 595.962 273.601C595.681 273.382 595.327 273.273 594.901 273.273C594.492 273.273 594.148 273.376 593.87 273.584C593.591 273.788 593.381 274.075 593.239 274.445C593.097 274.811 593.026 275.239 593.026 275.727Z" fill="#475467"/>
<path d="M647.455 274.636C647.455 275.557 647.289 276.352 646.957 277.023C646.624 277.693 646.168 278.21 645.589 278.574C645.009 278.938 644.347 279.119 643.603 279.119C642.859 279.119 642.197 278.938 641.617 278.574C641.038 278.21 640.582 277.693 640.249 277.023C639.917 276.352 639.751 275.557 639.751 274.636C639.751 273.716 639.917 272.92 640.249 272.25C640.582 271.58 641.038 271.062 641.617 270.699C642.197 270.335 642.859 270.153 643.603 270.153C644.347 270.153 645.009 270.335 645.589 270.699C646.168 271.062 646.624 271.58 646.957 272.25C647.289 272.92 647.455 273.716 647.455 274.636ZM646.433 274.636C646.433 273.881 646.306 273.243 646.053 272.723C645.803 272.203 645.464 271.81 645.035 271.543C644.609 271.276 644.131 271.142 643.603 271.142C643.075 271.142 642.596 271.276 642.167 271.543C641.741 271.81 641.401 272.203 641.148 272.723C640.898 273.243 640.773 273.881 640.773 274.636C640.773 275.392 640.898 276.03 641.148 276.55C641.401 277.07 641.741 277.463 642.167 277.73C642.596 277.997 643.075 278.131 643.603 278.131C644.131 278.131 644.609 277.997 645.035 277.73C645.464 277.463 645.803 277.07 646.053 276.55C646.306 276.03 646.433 275.392 646.433 274.636ZM651.755 279.136C651.141 279.136 650.613 278.991 650.17 278.702C649.727 278.412 649.386 278.013 649.147 277.504C648.908 276.996 648.789 276.415 648.789 275.761C648.789 275.097 648.911 274.51 649.156 274.001C649.403 273.49 649.746 273.091 650.187 272.804C650.63 272.514 651.147 272.369 651.738 272.369C652.198 272.369 652.613 272.455 652.982 272.625C653.352 272.795 653.654 273.034 653.89 273.341C654.126 273.648 654.272 274.006 654.329 274.415H653.323C653.246 274.116 653.076 273.852 652.812 273.622C652.55 273.389 652.198 273.273 651.755 273.273C651.363 273.273 651.019 273.375 650.724 273.58C650.431 273.781 650.202 274.067 650.038 274.436C649.876 274.803 649.795 275.233 649.795 275.727C649.795 276.233 649.874 276.673 650.033 277.048C650.195 277.423 650.423 277.714 650.715 277.922C651.011 278.129 651.357 278.233 651.755 278.233C652.016 278.233 652.254 278.188 652.467 278.097C652.68 278.006 652.86 277.875 653.008 277.705C653.156 277.534 653.261 277.33 653.323 277.091H654.329C654.272 277.477 654.131 277.825 653.907 278.135C653.685 278.442 653.391 278.686 653.025 278.868C652.661 279.047 652.238 279.136 651.755 279.136ZM658.646 272.455V273.307H655.254V272.455H658.646ZM656.242 270.886H657.248V277.125C657.248 277.409 657.289 277.622 657.371 277.764C657.457 277.903 657.565 277.997 657.695 278.045C657.829 278.091 657.97 278.114 658.117 278.114C658.228 278.114 658.319 278.108 658.39 278.097C658.461 278.082 658.518 278.071 658.56 278.062L658.765 278.966C658.697 278.991 658.602 279.017 658.479 279.043C658.357 279.071 658.202 279.085 658.015 279.085C657.731 279.085 657.452 279.024 657.18 278.902C656.91 278.78 656.685 278.594 656.506 278.344C656.33 278.094 656.242 277.778 656.242 277.398V270.886Z" fill="#475467"/>
<path d="M707.975 270.273V279H706.952L702.197 272.148H702.112V279H701.055V270.273H702.077L706.85 277.142H706.935V270.273H707.975ZM712.613 279.136C712.022 279.136 711.503 278.996 711.057 278.714C710.614 278.433 710.267 278.04 710.017 277.534C709.77 277.028 709.647 276.437 709.647 275.761C709.647 275.08 709.77 274.484 710.017 273.976C710.267 273.467 710.614 273.072 711.057 272.791C711.503 272.51 712.022 272.369 712.613 272.369C713.204 272.369 713.721 272.51 714.164 272.791C714.61 273.072 714.956 273.467 715.204 273.976C715.454 274.484 715.579 275.08 715.579 275.761C715.579 276.437 715.454 277.028 715.204 277.534C714.956 278.04 714.61 278.433 714.164 278.714C713.721 278.996 713.204 279.136 712.613 279.136ZM712.613 278.233C713.061 278.233 713.431 278.118 713.721 277.888C714.01 277.658 714.225 277.355 714.364 276.98C714.503 276.605 714.573 276.199 714.573 275.761C714.573 275.324 714.503 274.916 714.364 274.538C714.225 274.161 714.01 273.855 713.721 273.622C713.431 273.389 713.061 273.273 712.613 273.273C712.164 273.273 711.794 273.389 711.505 273.622C711.215 273.855 711 274.161 710.861 274.538C710.722 274.916 710.652 275.324 710.652 275.761C710.652 276.199 710.722 276.605 710.861 276.98C711 277.355 711.215 277.658 711.505 277.888C711.794 278.118 712.164 278.233 712.613 278.233ZM722.232 272.455L719.811 279H718.788L716.368 272.455H717.459L719.266 277.67H719.334L721.141 272.455H722.232Z" fill="#475467"/>
<path d="M767.094 279H764.401V270.273H767.213C768.06 270.273 768.784 270.447 769.386 270.797C769.989 271.143 770.45 271.642 770.771 272.293C771.092 272.94 771.253 273.716 771.253 274.619C771.253 275.528 771.091 276.311 770.767 276.967C770.443 277.621 769.972 278.124 769.352 278.476C768.733 278.825 767.98 279 767.094 279ZM765.457 278.062H767.026C767.747 278.062 768.345 277.923 768.82 277.645C769.294 277.366 769.648 276.97 769.881 276.456C770.114 275.942 770.23 275.33 770.23 274.619C770.23 273.915 770.115 273.308 769.885 272.8C769.655 272.288 769.311 271.896 768.854 271.624C768.396 271.348 767.827 271.21 767.145 271.21H765.457V278.062ZM775.634 279.136C775.003 279.136 774.459 278.997 774.001 278.719C773.547 278.438 773.196 278.045 772.949 277.543C772.705 277.037 772.582 276.449 772.582 275.778C772.582 275.108 772.705 274.517 772.949 274.006C773.196 273.491 773.54 273.091 773.98 272.804C774.423 272.514 774.94 272.369 775.531 272.369C775.872 272.369 776.209 272.426 776.541 272.54C776.874 272.653 777.176 272.838 777.449 273.094C777.722 273.347 777.939 273.682 778.101 274.099C778.263 274.517 778.344 275.031 778.344 275.642V276.068H773.298V275.199H777.321C777.321 274.83 777.247 274.5 777.099 274.21C776.955 273.92 776.747 273.692 776.477 273.524C776.21 273.357 775.895 273.273 775.531 273.273C775.131 273.273 774.784 273.372 774.492 273.571C774.202 273.767 773.979 274.023 773.823 274.338C773.666 274.653 773.588 274.991 773.588 275.352V275.932C773.588 276.426 773.673 276.845 773.844 277.189C774.017 277.53 774.257 277.79 774.564 277.969C774.871 278.145 775.227 278.233 775.634 278.233C775.898 278.233 776.136 278.196 776.349 278.122C776.565 278.045 776.751 277.932 776.908 277.781C777.064 277.628 777.185 277.437 777.27 277.21L778.242 277.483C778.139 277.812 777.967 278.102 777.726 278.352C777.484 278.599 777.186 278.793 776.831 278.932C776.476 279.068 776.077 279.136 775.634 279.136ZM782.533 279.136C781.919 279.136 781.391 278.991 780.948 278.702C780.504 278.412 780.163 278.013 779.925 277.504C779.686 276.996 779.567 276.415 779.567 275.761C779.567 275.097 779.689 274.51 779.933 274.001C780.18 273.49 780.524 273.091 780.965 272.804C781.408 272.514 781.925 272.369 782.516 272.369C782.976 272.369 783.391 272.455 783.76 272.625C784.129 272.795 784.432 273.034 784.668 273.341C784.903 273.648 785.05 274.006 785.107 274.415H784.101C784.024 274.116 783.854 273.852 783.59 273.622C783.328 273.389 782.976 273.273 782.533 273.273C782.141 273.273 781.797 273.375 781.501 273.58C781.209 273.781 780.98 274.067 780.815 274.436C780.653 274.803 780.573 275.233 780.573 275.727C780.573 276.233 780.652 276.673 780.811 277.048C780.973 277.423 781.2 277.714 781.493 277.922C781.788 278.129 782.135 278.233 782.533 278.233C782.794 278.233 783.031 278.188 783.244 278.097C783.457 278.006 783.638 277.875 783.786 277.705C783.933 277.534 784.038 277.33 784.101 277.091H785.107C785.05 277.477 784.909 277.825 784.685 278.135C784.463 278.442 784.169 278.686 783.803 278.868C783.439 279.047 783.016 279.136 782.533 279.136Z" fill="#475467"/>
<path d="M398.461 296.273H400.059L402.837 303.057H402.939L405.718 296.273H407.316V305H406.063V298.685H405.982L403.408 304.987H402.368L399.795 298.68H399.714V305H398.461V296.273ZM411.885 305.132C411.271 305.132 410.736 304.991 410.279 304.71C409.821 304.429 409.466 304.036 409.213 303.53C408.96 303.024 408.834 302.433 408.834 301.757C408.834 301.078 408.96 300.484 409.213 299.976C409.466 299.467 409.821 299.072 410.279 298.791C410.736 298.51 411.271 298.369 411.885 298.369C412.499 298.369 413.034 298.51 413.492 298.791C413.949 299.072 414.304 299.467 414.557 299.976C414.81 300.484 414.936 301.078 414.936 301.757C414.936 302.433 414.81 303.024 414.557 303.53C414.304 304.036 413.949 304.429 413.492 304.71C413.034 304.991 412.499 305.132 411.885 305.132ZM411.889 304.062C412.287 304.062 412.617 303.957 412.878 303.747C413.139 303.537 413.333 303.257 413.458 302.908C413.585 302.558 413.649 302.173 413.649 301.753C413.649 301.335 413.585 300.952 413.458 300.602C413.333 300.25 413.139 299.967 412.878 299.754C412.617 299.541 412.287 299.435 411.889 299.435C411.489 299.435 411.156 299.541 410.892 299.754C410.631 299.967 410.436 300.25 410.308 300.602C410.183 300.952 410.121 301.335 410.121 301.753C410.121 302.173 410.183 302.558 410.308 302.908C410.436 303.257 410.631 303.537 410.892 303.747C411.156 303.957 411.489 304.062 411.889 304.062ZM417.633 301.114V305H416.358V298.455H417.581V299.52H417.662C417.813 299.173 418.049 298.895 418.37 298.685C418.694 298.474 419.101 298.369 419.593 298.369C420.039 298.369 420.43 298.463 420.765 298.651C421.1 298.835 421.36 299.111 421.545 299.477C421.729 299.844 421.822 300.297 421.822 300.837V305H420.547V300.99C420.547 300.516 420.424 300.145 420.177 299.878C419.93 299.608 419.59 299.473 419.158 299.473C418.863 299.473 418.6 299.537 418.37 299.665C418.143 299.793 417.962 299.98 417.829 300.227C417.698 300.472 417.633 300.767 417.633 301.114ZM426.586 298.455V299.477H423.01V298.455H426.586ZM423.969 296.886H425.243V303.078C425.243 303.325 425.28 303.511 425.354 303.636C425.428 303.759 425.523 303.842 425.64 303.888C425.759 303.93 425.888 303.952 426.028 303.952C426.13 303.952 426.219 303.945 426.296 303.93C426.373 303.916 426.432 303.905 426.475 303.896L426.705 304.949C426.631 304.977 426.526 305.006 426.39 305.034C426.253 305.065 426.083 305.082 425.878 305.085C425.543 305.091 425.231 305.031 424.941 304.906C424.651 304.781 424.417 304.588 424.238 304.327C424.059 304.065 423.969 303.737 423.969 303.342V296.886ZM429.41 301.114V305H428.136V296.273H429.393V299.52H429.474C429.627 299.168 429.862 298.888 430.177 298.68C430.492 298.473 430.904 298.369 431.413 298.369C431.862 298.369 432.254 298.462 432.589 298.646C432.927 298.831 433.188 299.107 433.373 299.473C433.561 299.837 433.654 300.291 433.654 300.837V305H432.38V300.99C432.38 300.51 432.257 300.138 432.009 299.874C431.762 299.607 431.419 299.473 430.978 299.473C430.677 299.473 430.407 299.537 430.169 299.665C429.933 299.793 429.747 299.98 429.61 300.227C429.477 300.472 429.41 300.767 429.41 301.114Z" fill="#475467"/>
<path d="M366 30L366 258" stroke="#D1D5DB"/>
<path d="M70 123.135L76.6402 119.089L83.488 117.201L90.3357 120.977L97.3909 119.089H104.446L111.294 117.201H117.727L124.367 114.683L131.007 117.201L138.892 112.795L144.703 114.683L150.928 112.795L157.153 110.908L165.038 112.795L170.848 110.908L176.244 107.132L183.506 103.356L190.769 100.209H198.032L205.71 98.3211L211.105 100.209H214.217L219.405 103.356L225.423 109.02L231.648 110.908H233.931L239.118 103.356L244.513 100.209L249.286 98.3211L258.624 96.4331L261.737 92.0279L268.584 90.1399L276.47 88.252H279.79C281.104 88.8813 283.815 90.1399 284.147 90.1399C284.479 90.1399 288.712 91.3986 290.788 92.0279L296.183 96.4331H302.615L308.841 92.0279L313.198 93.9159L321.499 96.4331L326.686 93.9159L335.609 92.0279C336.647 91.3986 338.805 90.1399 339.137 90.1399C339.469 90.1399 341.765 88.0422 342.872 86.9933H347.022L350.135 80.7001H356.775L363 73.9792" stroke="#3E4784" stroke-width="3" stroke-linecap="round" stroke-linejoin="round"/>
<path d="M70 154.099L76.6402 151.521L83.488 150.319L90.3357 152.724L97.3909 151.521H104.446L111.294 150.319H117.727L124.367 148.715L131.007 150.319L138.892 147.513L144.703 148.715L150.928 147.513L157.153 146.31L165.038 147.513L170.848 146.31L176.244 143.905L183.506 141.5L190.769 139.495H198.032L205.71 138.293L211.105 139.495H214.217L219.405 141.5L225.423 145.108L231.648 146.31H233.931L239.118 141.5L244.513 139.495L249.286 138.293L258.624 137.09L261.737 134.284L268.584 133.081L276.47 131.879H279.79C281.104 132.28 283.815 133.081 284.147 133.081C284.479 133.081 288.712 133.883 290.788 134.284L296.183 137.09H302.615L308.841 134.284L313.198 135.487L321.499 137.09L326.686 135.487L335.609 134.284C336.647 133.883 338.805 133.081 339.137 133.081C339.469 133.081 341.765 131.745 342.872 131.077H347.022L350.135 127.068H356.775L363 122.787" stroke="#FFA012" stroke-width="3" stroke-linecap="round" stroke-linejoin="round"/>
<g filter="url(#filter0_d_1_8866)">
<circle cx="365" cy="121" r="8" fill="#FFA012"/>
<circle cx="365" cy="121" r="6.5" stroke="white" stroke-width="3"/>
</g>
<circle cx="365" cy="76" r="6.5" fill="#3E4784" stroke="white" stroke-width="3"/>
<defs>
<filter id="filter0_d_1_8866" x="353" y="113" width="24" height="24" filterUnits="userSpaceOnUse" color-interpolation-filters="sRGB">
<feFlood flood-opacity="0" result="BackgroundImageFix"/>
<feColorMatrix in="SourceAlpha" type="matrix" values="0 0 0 0 0 0 0 0 0 0 0 0 0 0 0 0 0 0 127 0" result="hardAlpha"/>
<feOffset dy="4"/>
<feGaussianBlur stdDeviation="2"/>
<feComposite in2="hardAlpha" operator="out"/>
<feColorMatrix type="matrix" values="0 0 0 0 0 0 0 0 0 0 0 0 0 0 0 0 0 0 0.25 0"/>
<feBlend mode="normal" in2="BackgroundImageFix" result="effect1_dropShadow_1_8866"/>
<feBlend mode="normal" in="SourceGraphic" in2="effect1_dropShadow_1_8866" result="shape"/>
</filter>
</defs>
</svg>
