<svg width="45" height="44" viewBox="0 0 45 44" fill="none" xmlns="http://www.w3.org/2000/svg">
<path d="M22.3548 44C34.701 44 44.7095 34.1503 44.7095 22C44.7095 9.84973 34.701 0 22.3548 0C10.0086 0 0 9.84973 0 22C0 34.1503 10.0086 44 22.3548 44Z" fill="#ABBED3"/>
<path d="M22.3551 39.7485C32.3152 39.7485 40.3894 31.8024 40.3894 22.0003C40.3894 12.1983 32.3152 4.2522 22.3551 4.2522C12.395 4.2522 4.32074 12.1983 4.32074 22.0003C4.32074 31.8024 12.395 39.7485 22.3551 39.7485Z" fill="#354D8D"/>
<path d="M18.7723 31.0286C17.9349 31.0611 17.1039 30.8718 16.3662 30.4804C15.7597 30.1488 15.2714 29.6418 14.9675 29.0281C14.6749 28.4336 14.5229 27.7815 14.523 27.1209C14.4815 26.3596 14.6893 25.6052 15.1157 24.9687C15.5328 24.398 16.0811 23.9324 16.7158 23.6098C17.3752 23.2625 18.0656 22.9755 18.7782 22.7524L20.8347 22.0817C21.4032 21.9062 21.9394 21.6423 22.423 21.3001C22.6088 21.1659 22.7594 20.9901 22.8625 20.7873C22.9655 20.5844 23.018 20.3604 23.0157 20.1336V17.5382C23.0171 17.0985 22.9471 16.6613 22.8083 16.2434C22.6727 15.8463 22.4187 15.4988 22.0793 15.246C21.6542 14.9624 21.1459 14.8251 20.6332 14.8552C20.258 14.8548 19.8847 14.9079 19.525 15.0127C19.1743 15.1111 18.8489 15.2821 18.5708 15.5143C19.1723 15.6904 19.7015 16.0498 20.0821 16.5408C20.4029 16.9874 20.5729 17.522 20.568 18.0689C20.584 18.4136 20.5196 18.7572 20.3799 19.0736C20.2402 19.39 20.0289 19.6708 19.762 19.8945C19.2267 20.3413 18.5437 20.5799 17.8419 20.5652C17.4956 20.5853 17.1492 20.5287 16.8281 20.3995C16.5071 20.2703 16.2196 20.0718 15.9869 19.8187C15.5528 19.3125 15.3229 18.6669 15.3409 18.0048C15.3198 17.443 15.4863 16.8898 15.815 16.43C16.1926 15.9508 16.6667 15.5537 17.2077 15.2635C17.8991 14.883 18.6503 14.6189 19.4302 14.482C20.3518 14.3072 21.2889 14.2232 22.2275 14.2312C23.1509 14.2233 24.0719 14.3231 24.9714 14.5286C25.7816 14.7123 26.523 15.1165 27.1109 15.6951C27.5804 16.1764 27.8904 16.7865 27.9999 17.4449C28.1391 18.3128 28.2026 19.1909 28.1895 20.0695V28.4915C28.166 28.8568 28.2143 29.2232 28.3318 29.5705C28.3683 29.6609 28.4323 29.738 28.5151 29.7912C28.5978 29.8445 28.6952 29.8713 28.794 29.868C28.9854 29.8673 29.1725 29.8126 29.3333 29.7105C29.4993 29.6055 29.6711 29.4889 29.8371 29.3664L30.1868 29.8971C29.6982 30.2838 29.1389 30.5748 28.5392 30.7545C27.8714 30.9578 27.1757 31.0581 26.4768 31.052C25.801 31.0812 25.1265 30.9699 24.4973 30.7253C24.0727 30.5544 23.7167 30.2512 23.4839 29.8621C23.2779 29.4762 23.1625 29.0497 23.1461 28.614C22.7119 29.3356 22.1159 29.95 21.4037 30.4104C20.607 30.8655 19.692 31.0805 18.7723 31.0286ZM21.4037 28.7831C21.7182 28.7874 22.0291 28.7174 22.3104 28.579C22.6137 28.4067 22.87 28.1645 23.0572 27.8733V21.4109C22.8736 21.719 22.6415 21.9966 22.3697 22.2333C22.0852 22.4958 21.7771 22.7582 21.4689 23.0148C21.1494 23.2824 20.8466 23.5687 20.5621 23.8722C20.2646 24.1994 20.0261 24.5742 19.8569 24.9804C19.6623 25.4726 19.5696 25.9981 19.5842 26.526C19.5267 27.1514 19.7084 27.7753 20.0939 28.2757C20.2614 28.4507 20.4648 28.5885 20.6907 28.6801C20.9165 28.7716 21.1596 28.8147 21.4037 28.8065V28.7831Z" fill="#F9F3ED"/>
</svg>
