<svg width="379" height="187" viewBox="0 0 379 187" fill="none" xmlns="http://www.w3.org/2000/svg">
<path d="M335.562 97.0455V89.3636H337.091V97.0455H335.562ZM332.489 93.9659V92.4432H340.17V93.9659H332.489ZM346.838 99.1591C346.319 99.1515 345.808 99.0568 345.304 98.875C344.804 98.6932 344.349 98.3902 343.94 97.9659C343.531 97.5417 343.204 96.9716 342.957 96.2557C342.715 95.5398 342.594 94.6458 342.594 93.5739C342.594 92.5587 342.694 91.6572 342.895 90.8693C343.099 90.0814 343.393 89.4167 343.776 88.875C344.158 88.3295 344.62 87.9148 345.162 87.6307C345.704 87.3466 346.312 87.2045 346.986 87.2045C347.679 87.2045 348.295 87.3409 348.832 87.6136C349.37 87.8864 349.806 88.2633 350.139 88.7443C350.476 89.2254 350.69 89.7727 350.781 90.3864H349.048C348.931 89.9015 348.698 89.5057 348.349 89.1989C348.001 88.892 347.546 88.7386 346.986 88.7386C346.134 88.7386 345.469 89.1098 344.991 89.8523C344.518 90.5947 344.279 91.6269 344.276 92.9489H344.361C344.562 92.6193 344.808 92.339 345.099 92.108C345.395 91.8731 345.724 91.6932 346.088 91.5682C346.455 91.4394 346.842 91.375 347.247 91.375C347.921 91.375 348.531 91.5398 349.077 91.8693C349.626 92.1951 350.063 92.6458 350.389 93.2216C350.715 93.7973 350.878 94.4564 350.878 95.1989C350.878 95.9413 350.709 96.6136 350.372 97.2159C350.039 97.8182 349.569 98.2955 348.963 98.6477C348.357 98.9962 347.649 99.1667 346.838 99.1591ZM346.832 97.6818C347.279 97.6818 347.679 97.572 348.031 97.3523C348.384 97.1326 348.662 96.8371 348.866 96.4659C349.071 96.0947 349.173 95.6799 349.173 95.2216C349.173 94.7746 349.073 94.3674 348.872 94C348.675 93.6326 348.402 93.3409 348.054 93.125C347.709 92.9091 347.315 92.8011 346.872 92.8011C346.535 92.8011 346.223 92.8655 345.935 92.9943C345.651 93.1231 345.401 93.3011 345.185 93.5284C344.969 93.7557 344.798 94.017 344.673 94.3125C344.552 94.6042 344.491 94.9129 344.491 95.2386C344.491 95.6742 344.592 96.0777 344.793 96.4489C344.997 96.8201 345.276 97.1193 345.628 97.3466C345.984 97.5701 346.385 97.6818 346.832 97.6818ZM356.999 99.1932C356.101 99.1894 355.334 98.9527 354.697 98.483C354.061 98.0133 353.574 97.3295 353.237 96.4318C352.9 95.5341 352.732 94.4527 352.732 93.1875C352.732 91.9261 352.9 90.8485 353.237 89.9545C353.578 89.0606 354.067 88.3788 354.703 87.9091C355.343 87.4394 356.108 87.2045 356.999 87.2045C357.889 87.2045 358.652 87.4413 359.288 87.9148C359.925 88.3845 360.411 89.0663 360.749 89.9602C361.089 90.8504 361.26 91.9261 361.26 93.1875C361.26 94.4564 361.091 95.5398 360.754 96.4375C360.417 97.3314 359.93 98.0152 359.294 98.4886C358.658 98.9583 357.893 99.1932 356.999 99.1932ZM356.999 97.6761C357.786 97.6761 358.402 97.2917 358.845 96.5227C359.292 95.7538 359.516 94.642 359.516 93.1875C359.516 92.2216 359.413 91.4053 359.209 90.7386C359.008 90.0682 358.718 89.5606 358.339 89.2159C357.964 88.8674 357.518 88.6932 356.999 88.6932C356.214 88.6932 355.599 89.0795 355.152 89.8523C354.705 90.625 354.48 91.7367 354.476 93.1875C354.476 94.1572 354.576 94.9773 354.777 95.6477C354.982 96.3144 355.271 96.8201 355.646 97.1648C356.021 97.5057 356.472 97.6761 356.999 97.6761ZM369.349 96.8182V96.2045C369.349 95.7652 369.44 95.3636 369.622 95C369.808 94.6326 370.077 94.339 370.429 94.1193C370.785 93.8958 371.215 93.7841 371.719 93.7841C372.234 93.7841 372.666 93.8939 373.014 94.1136C373.363 94.3333 373.626 94.6269 373.804 94.9943C373.986 95.3617 374.077 95.7652 374.077 96.2045V96.8182C374.077 97.2576 373.986 97.661 373.804 98.0284C373.622 98.392 373.355 98.6856 373.003 98.9091C372.654 99.1288 372.226 99.2386 371.719 99.2386C371.207 99.2386 370.776 99.1288 370.423 98.9091C370.071 98.6856 369.804 98.392 369.622 98.0284C369.44 97.661 369.349 97.2576 369.349 96.8182ZM370.673 96.2045V96.8182C370.673 97.1439 370.751 97.4394 370.906 97.7045C371.062 97.9697 371.332 98.1023 371.719 98.1023C372.101 98.1023 372.368 97.9697 372.52 97.7045C372.671 97.4394 372.747 97.1439 372.747 96.8182V96.2045C372.747 95.8788 372.673 95.5833 372.526 95.3182C372.382 95.053 372.113 94.9205 371.719 94.9205C371.34 94.9205 371.071 95.053 370.912 95.3182C370.753 95.5833 370.673 95.8788 370.673 96.2045ZM363.497 90.1591V89.5455C363.497 89.1061 363.588 88.7027 363.77 88.3352C363.955 87.9678 364.224 87.6742 364.577 87.4545C364.933 87.2348 365.363 87.125 365.866 87.125C366.382 87.125 366.813 87.2348 367.162 87.4545C367.51 87.6742 367.774 87.9678 367.952 88.3352C368.13 88.7027 368.219 89.1061 368.219 89.5455V90.1591C368.219 90.5985 368.128 91.0019 367.946 91.3693C367.768 91.733 367.503 92.0265 367.151 92.25C366.802 92.4697 366.374 92.5795 365.866 92.5795C365.351 92.5795 364.918 92.4697 364.565 92.25C364.217 92.0265 363.952 91.733 363.77 91.3693C363.588 91.0019 363.497 90.5985 363.497 90.1591ZM364.827 89.5455V90.1591C364.827 90.4848 364.902 90.7803 365.054 91.0455C365.209 91.3106 365.48 91.4432 365.866 91.4432C366.245 91.4432 366.51 91.3106 366.662 91.0455C366.817 90.7803 366.895 90.4848 366.895 90.1591V89.5455C366.895 89.2197 366.821 88.9242 366.673 88.6591C366.526 88.3939 366.257 88.2614 365.866 88.2614C365.488 88.2614 365.219 88.3939 365.06 88.6591C364.904 88.9242 364.827 89.2197 364.827 89.5455ZM364.037 99L372.037 87.3636H373.395L365.395 99H364.037Z" fill="#9CA3AF"/>
<path d="M282.562 31.0455V23.3636H284.091V31.0455H282.562ZM279.489 27.9659V26.4432H287.17V27.9659H279.489ZM289.531 30.7273V29.3068L294.56 21.3636H295.679V23.4545H294.969L291.372 29.1477V29.2386H298.264V30.7273H289.531ZM295.048 33V30.2955L295.06 29.6477V21.3636H296.724V33H295.048ZM300 30.7273V29.3068L305.028 21.3636H306.148V23.4545H305.438L301.841 29.1477V29.2386H308.733V30.7273H300ZM305.517 33V30.2955L305.528 29.6477V21.3636H307.193V33H305.517ZM316.787 30.8182V30.2045C316.787 29.7652 316.878 29.3636 317.06 29C317.245 28.6326 317.514 28.339 317.866 28.1193C318.223 27.8958 318.652 27.7841 319.156 27.7841C319.671 27.7841 320.103 27.8939 320.452 28.1136C320.8 28.3333 321.063 28.6269 321.241 28.9943C321.423 29.3617 321.514 29.7652 321.514 30.2045V30.8182C321.514 31.2576 321.423 31.661 321.241 32.0284C321.06 32.392 320.793 32.6856 320.44 32.9091C320.092 33.1288 319.664 33.2386 319.156 33.2386C318.645 33.2386 318.213 33.1288 317.861 32.9091C317.509 32.6856 317.241 32.392 317.06 32.0284C316.878 31.661 316.787 31.2576 316.787 30.8182ZM318.111 30.2045V30.8182C318.111 31.1439 318.188 31.4394 318.344 31.7045C318.499 31.9697 318.77 32.1023 319.156 32.1023C319.539 32.1023 319.806 31.9697 319.957 31.7045C320.109 31.4394 320.185 31.1439 320.185 30.8182V30.2045C320.185 29.8788 320.111 29.5833 319.963 29.3182C319.819 29.053 319.55 28.9205 319.156 28.9205C318.777 28.9205 318.509 29.053 318.349 29.3182C318.19 29.5833 318.111 29.8788 318.111 30.2045ZM310.935 24.1591V23.5455C310.935 23.1061 311.026 22.7027 311.207 22.3352C311.393 21.9678 311.662 21.6742 312.014 21.4545C312.37 21.2348 312.8 21.125 313.304 21.125C313.819 21.125 314.251 21.2348 314.599 21.4545C314.948 21.6742 315.211 21.9678 315.389 22.3352C315.567 22.7027 315.656 23.1061 315.656 23.5455V24.1591C315.656 24.5985 315.565 25.0019 315.384 25.3693C315.205 25.733 314.94 26.0265 314.588 26.25C314.24 26.4697 313.812 26.5795 313.304 26.5795C312.789 26.5795 312.355 26.4697 312.003 26.25C311.654 26.0265 311.389 25.733 311.207 25.3693C311.026 25.0019 310.935 24.5985 310.935 24.1591ZM312.264 23.5455V24.1591C312.264 24.4848 312.34 24.7803 312.491 25.0455C312.647 25.3106 312.918 25.4432 313.304 25.4432C313.683 25.4432 313.948 25.3106 314.099 25.0455C314.255 24.7803 314.332 24.4848 314.332 24.1591V23.5455C314.332 23.2197 314.259 22.9242 314.111 22.6591C313.963 22.3939 313.694 22.2614 313.304 22.2614C312.925 22.2614 312.656 22.3939 312.497 22.6591C312.342 22.9242 312.264 23.2197 312.264 23.5455ZM311.474 33L319.474 21.3636H320.832L312.832 33H311.474Z" fill="#9CA3AF"/>
<path d="M345.829 180.5C345.829 156.796 341.357 133.325 332.667 111.426C323.977 89.5264 311.24 69.6282 295.184 52.8672C279.127 36.1062 260.065 22.8107 239.086 13.7397C218.107 4.66877 195.622 -1.03612e-06 172.915 0C150.207 1.03612e-06 127.722 4.66877 106.743 13.7397C85.764 22.8107 66.7021 36.1063 50.6455 52.8672C34.5889 69.6282 21.8521 89.5264 13.1623 111.426C4.47256 133.325 -1.98515e-06 156.796 0 180.5H38.6994C38.6994 162.101 42.1709 143.883 48.9159 126.885C55.6608 109.887 65.547 94.442 78.0101 81.4323C90.4731 68.4225 105.269 58.1026 121.553 51.0617C137.836 44.0209 155.289 40.397 172.915 40.397C190.54 40.397 207.993 44.0209 224.276 51.0617C240.56 58.1026 255.356 68.4225 267.819 81.4322C280.282 94.442 290.168 109.887 296.913 126.885C303.658 143.883 307.13 162.101 307.13 180.5H345.829Z" fill="#E2E7DB"/>
<path d="M327.607 99.8479C310.202 63.4709 281.54 34.2943 246.265 17.0453C210.991 -0.203602 171.17 -4.51424 133.255 4.81185C95.3407 14.1379 61.5532 36.5544 37.3675 68.4291C13.1818 100.304 0.0148628 139.769 0 180.431L38.6994 180.447C38.7109 148.885 48.931 118.252 67.7038 93.5113C86.4766 68.7703 112.702 51.3708 142.131 44.132C171.561 36.8931 202.469 40.239 229.849 53.6276C257.229 67.0161 279.476 89.6628 292.986 117.898L327.607 99.8479Z" fill="#BFDE8D"/>
<path d="M277.389 36.6712C251.75 16.3777 221.195 3.95438 189.161 0.798579C157.127 -2.35722 124.885 3.87971 96.062 18.8078C67.2386 33.7359 42.9771 56.763 26.0065 85.299C9.03589 113.835 0.0293612 146.748 0 180.335L38.6993 180.372C38.7221 154.302 45.7129 128.755 58.8854 106.606C72.0579 84.4562 90.8895 66.5827 113.262 54.9956C135.635 43.4085 160.661 38.5674 185.525 41.0169C210.389 43.4664 234.106 53.1093 254.007 68.861L277.389 36.6712Z" fill="#047857"/>
<path d="M180.762 0.18599C157.35 -0.924304 133.965 2.94519 112.03 11.5594C90.0941 20.1737 70.065 33.3528 53.159 50.2963C36.2531 67.2398 22.8232 87.594 13.6852 110.122C4.54722 132.651 -0.108146 156.883 0.00190662 181.348L38.7008 181.158C38.6154 162.169 42.2289 143.36 49.3217 125.873C56.4146 108.387 66.8388 92.5881 79.9611 79.4367C93.0834 66.2853 108.63 56.0557 125.656 49.3694C142.682 42.6831 160.833 39.6796 179.006 40.5414L180.762 0.18599Z" fill="#10B981"/>
<path d="M180.099 56L179.141 180L164.772 179.271L180.099 56Z" fill="url(#paint0_linear_1_9203)"/>
<ellipse cx="171.957" cy="179.5" rx="7.18481" ry="7.5" fill="#3A4956"/>
<path fill-rule="evenodd" clip-rule="evenodd" d="M303.678 183C303.678 182.834 303.678 182.668 303.677 182.501C303.676 182.167 303.674 181.834 303.67 181.5C303.665 181 303.657 180.5 303.647 180H303.181V182.503L300.803 182.512C300.804 182.675 300.804 182.837 300.804 183H303.678ZM44.0669 183C44.0669 182.837 44.0672 182.675 44.0677 182.512L41.6901 182.503L41.6901 180H41.2244C41.2139 180.5 41.2061 181 41.2008 181.5C41.1973 181.834 41.195 182.167 41.1938 182.501C41.1933 182.668 41.193 182.834 41.193 183H44.0669ZM41.6514 171.555L44.5153 171.806C44.5413 171.482 44.5684 171.158 44.5966 170.835L41.7345 170.563C41.7057 170.893 41.678 171.224 41.6514 171.555ZM43.1043 159.701L45.9364 160.211C45.9893 159.891 46.0434 159.571 46.0985 159.251L43.2701 158.719C43.2137 159.046 43.1584 159.373 43.1043 159.701ZM45.542 148.023L48.3207 148.789C48.4001 148.475 48.4807 148.161 48.5623 147.848L45.789 147.061C45.7056 147.381 45.6233 147.702 45.542 148.023ZM48.9454 136.612L51.6496 137.627C51.7549 137.322 51.8614 137.017 51.9689 136.712L49.2719 135.675C49.162 135.987 49.0532 136.299 48.9454 136.612ZM53.2884 125.553L55.8975 126.811C56.028 126.516 56.1595 126.222 56.292 125.928L53.6918 124.65C53.5563 124.951 53.4218 125.252 53.2884 125.553ZM58.5379 114.932L61.0321 116.422C61.1866 116.14 61.3422 115.859 61.4987 115.578L59.0151 114.069C58.855 114.356 58.6959 114.644 58.5379 114.932ZM64.6543 104.829L67.0144 106.54C67.192 106.274 67.3705 106.007 67.55 105.742L65.2018 104.012C65.0183 104.284 64.8358 104.556 64.6543 104.829ZM71.5911 95.3206L73.7993 97.2406C73.9984 96.9911 74.1984 96.7423 74.3993 96.4942L72.2046 94.5574C71.9991 94.8111 71.7946 95.0655 71.5911 95.3206ZM79.2959 86.4796L81.3354 88.5932C81.4451 88.4779 81.5551 88.3627 81.6652 88.2477C81.7754 88.1327 81.8857 88.0179 81.9962 87.9034L79.9715 85.7744C79.8585 85.8915 79.7457 86.0088 79.633 86.1264C79.5204 86.2439 79.408 86.3617 79.2959 86.4796ZM87.7098 78.372L89.5652 80.6631C89.8029 80.4533 90.0412 80.2445 90.2803 80.0367L88.4409 77.7316C88.1965 77.9441 87.9528 78.1576 87.7098 78.372ZM96.7673 71.0621L98.4243 73.5132C98.6786 73.3259 98.9336 73.1396 99.1891 72.9542L97.5493 70.4905C97.288 70.68 97.0274 70.8705 96.7673 71.0621ZM106.402 64.6039L107.847 67.1966C108.116 67.0331 108.386 66.8707 108.656 66.7094L107.228 64.1058C106.952 64.2708 106.676 64.4368 106.402 64.6039ZM116.538 59.0471L117.762 61.7614C118.043 61.6231 118.326 61.4858 118.608 61.3496L117.403 58.6261C117.114 58.7653 116.826 58.9057 116.538 59.0471ZM127.1 54.4333L128.093 57.2486C128.385 57.1364 128.677 57.0253 128.97 56.9153L127.997 54.0925C127.697 54.205 127.398 54.3186 127.1 54.4333ZM138.007 50.7977L138.761 53.6926C139.061 53.6074 139.361 53.5233 139.662 53.4404L138.928 50.5398C138.621 50.6246 138.313 50.7106 138.007 50.7977ZM149.175 48.1682L149.685 51.1207C149.991 51.0632 150.297 51.0067 150.604 50.9515L150.115 47.9952C149.802 48.0517 149.488 48.1094 149.175 48.1682ZM160.521 46.5653L160.782 49.5529C161.092 49.5235 161.402 49.4952 161.712 49.4681L161.472 46.4785C161.155 46.5063 160.838 46.5352 160.521 46.5653ZM171.958 46.0009L171.968 49.0009C172.124 49.0003 172.28 49 172.436 49C172.591 49 172.747 49.0003 172.903 49.0009L172.913 46.0009C172.754 46.0003 172.595 46 172.436 46C172.276 46 172.117 46.0003 171.958 46.0009ZM183.399 46.4785L183.159 49.4681C183.47 49.4952 183.78 49.5235 184.089 49.5529L184.35 46.5653C184.033 46.5352 183.717 46.5063 183.399 46.4785ZM194.756 47.9952L194.267 50.9515C194.574 51.0067 194.88 51.0632 195.187 51.1207L195.696 48.1682C195.383 48.1094 195.069 48.0517 194.756 47.9952ZM205.943 50.5398L205.209 53.4404C205.51 53.5233 205.81 53.6074 206.111 53.6926L206.865 50.7977C206.558 50.7106 206.25 50.6246 205.943 50.5398ZM216.874 54.0925L215.901 56.9153C216.194 57.0253 216.487 57.1364 216.779 57.2486L217.771 54.4333C217.473 54.3186 217.174 54.205 216.874 54.0925ZM227.468 58.6261L226.263 61.3496C226.546 61.4858 226.828 61.6231 227.109 61.7614L228.333 59.0471C228.045 58.9057 227.757 58.7653 227.468 58.6261ZM237.643 64.1058L236.215 66.7094C236.485 66.8707 236.755 67.0331 237.024 67.1966L238.47 64.6039C238.195 64.4368 237.919 64.2708 237.643 64.1058ZM247.322 70.4905L245.682 72.9542C245.938 73.1396 246.193 73.3259 246.447 73.5133L248.104 71.0621C247.844 70.8705 247.583 70.68 247.322 70.4905ZM256.43 77.7316L254.591 80.0367C254.83 80.2445 255.068 80.4533 255.306 80.6631L257.161 78.372C256.918 78.1576 256.675 77.9441 256.43 77.7316ZM264.9 85.7744L262.875 87.9034C262.985 88.0179 263.096 88.1327 263.206 88.2477C263.316 88.3627 263.426 88.4779 263.536 88.5932L265.575 86.4796C265.463 86.3617 265.351 86.2439 265.238 86.1264C265.126 86.0088 265.013 85.8915 264.9 85.7744ZM272.667 94.5575L270.472 96.4942C270.673 96.7423 270.873 96.9912 271.072 97.2407L273.28 95.3206C273.077 95.0655 272.872 94.8111 272.667 94.5575ZM279.669 104.012L277.321 105.742C277.501 106.007 277.679 106.274 277.857 106.54L280.217 104.829C280.035 104.556 279.853 104.284 279.669 104.012ZM285.856 114.069L283.372 115.578C283.529 115.859 283.685 116.14 283.839 116.422L286.333 114.932C286.175 114.644 286.016 114.356 285.856 114.069ZM291.179 124.65L288.579 125.928C288.712 126.222 288.843 126.516 288.974 126.811L291.583 125.553C291.449 125.252 291.315 124.951 291.179 124.65ZM295.599 135.675L292.902 136.712C293.01 137.017 293.116 137.322 293.222 137.627L295.926 136.612C295.818 136.299 295.709 135.987 295.599 135.675ZM299.082 147.061L296.309 147.848C296.39 148.161 296.471 148.475 296.55 148.789L299.329 148.023C299.248 147.702 299.166 147.381 299.082 147.061ZM301.601 158.719L298.773 159.251C298.828 159.571 298.882 159.891 298.935 160.211L301.767 159.701C301.713 159.373 301.657 159.046 301.601 158.719ZM303.137 170.563L300.275 170.835C300.303 171.158 300.33 171.482 300.356 171.806L303.22 171.555C303.193 171.224 303.165 170.893 303.137 170.563Z" fill="#606060"/>
<defs>
<linearGradient id="paint0_linear_1_9203" x1="178.183" y1="17" x2="171.921" y2="174.98" gradientUnits="userSpaceOnUse">
<stop offset="0.551762" stop-color="#D9D9D9"/>
<stop offset="1" stop-color="#3A4956"/>
</linearGradient>
</defs>
</svg>
