<svg width="130" height="66" viewBox="0 0 130 66" fill="none" xmlns="http://www.w3.org/2000/svg">
<mask id="mask0_1_9128" style="mask-type:alpha" maskUnits="userSpaceOnUse" x="1" y="1" width="128" height="64">
<rect width="128" height="64" transform="translate(1 1)" fill="url(#paint0_linear_1_9128)"/>
</mask>
<g mask="url(#mask0_1_9128)">
<path d="M35 27L1 65H129V1L94 39L35 27Z" fill="#ECFDF3"/>
</g>
<path d="M1 65L35 27L94 39L129 1" stroke="#17B26A" stroke-width="2" stroke-linecap="round" stroke-linejoin="round"/>
<g opacity="0.2">
<rect x="84" y="28" width="20" height="20" rx="10" stroke="#17B26A" stroke-width="2"/>
</g>
<rect x="89" y="33" width="10" height="10" rx="5" fill="white"/>
<rect x="89" y="33" width="10" height="10" rx="5" stroke="#17B26A" stroke-width="2"/>
<g opacity="0.2">
<rect x="26" y="18" width="20" height="20" rx="10" stroke="#17B26A" stroke-width="2"/>
</g>
<rect x="31" y="23" width="10" height="10" rx="5" fill="white"/>
<rect x="31" y="23" width="10" height="10" rx="5" stroke="#17B26A" stroke-width="2"/>
<defs>
<linearGradient id="paint0_linear_1_9128" x1="64" y1="0" x2="64" y2="64" gradientUnits="userSpaceOnUse">
<stop/>
<stop offset="1" stop-opacity="0"/>
</linearGradient>
</defs>
</svg>
